<?xml version="1.0" encoding="UTF-8"?>
<svg version="1.1" xmlns="http://www.w3.org/2000/svg" width="251" height="364">
<path d="M0 0 C6.886672 -0.10148186 13.77315092 -0.1714999 20.66040039 -0.21972656 C23.00292161 -0.23983265 25.3453927 -0.26712166 27.68774414 -0.30175781 C31.05627823 -0.35031841 34.42414831 -0.37297922 37.79296875 -0.390625 C38.83897751 -0.41127014 39.88498627 -0.43191528 40.96269226 -0.45318604 C48.25404022 -0.45543242 48.25404022 -0.45543242 52.09228516 1.88793945 C53.99391921 3.99326786 55.64716495 6.0547297 57.1875 8.4375 C57.92033203 9.54931641 57.92033203 9.54931641 58.66796875 10.68359375 C61.53766403 15.67400226 62.38590936 19.89212969 62.375 25.625 C62.37628906 26.32560547 62.37757813 27.02621094 62.37890625 27.74804688 C62.25266648 34.01986828 60.69273725 39.32601793 58 45 C58.66 45 59.32 45 60 45 C61.41644622 53.1744306 61.16217224 59.47217831 56.30859375 66.421875 C55.10772984 67.95617293 53.88035624 69.47028909 52.62109375 70.95703125 C49.7173463 74.56750293 49.7173463 74.56750293 49.14453125 79 C50.22873394 82.2462677 51.03401198 84.38871071 54 86.265625 C56.31096367 87.24934602 58.64465384 88.12884457 61 89 C65.6372511 91.44986851 68.17663679 93.85962296 70.31640625 98.57421875 C71.89353726 104.17078081 71.83521399 110.49435803 70 116 C70.78375 116.20625 71.5675 116.4125 72.375 116.625 C76.36653338 118.1390299 79.68868636 120.13225386 83.30859375 122.37109375 C85.91435069 123.9481629 88.55782918 125.38909893 91.25 126.8125 C95.73177384 129.23853142 100.07216186 131.83567515 104.375 134.5625 C104.95797852 134.92641846 105.54095703 135.29033691 106.14160156 135.6652832 C109.91250981 138.08811892 112.96084969 140.71482324 116 144 C116.50287316 144.42923862 117.00574633 144.85847723 117.52385807 145.30072308 C121.41507583 148.9834487 122.44436585 151.94704253 122.78208923 157.2792511 C122.82678367 159.83465911 122.83841973 162.39077519 122.82397461 164.9465332 C122.8370314 166.35991835 122.85258602 167.77328228 122.87043762 169.18661499 C122.91048538 173.01137102 122.91235789 176.83523559 122.90474772 180.6601603 C122.90152926 183.86074388 122.91621262 187.06114935 122.93056399 190.26169461 C122.96380877 197.81774743 122.96518635 205.37335285 122.94702148 212.92944336 C122.92891321 220.70588811 122.96581062 228.48070294 123.02973169 236.25686961 C123.08270718 242.94936104 123.10056392 249.6413357 123.09081846 256.3340289 C123.08539782 260.32421952 123.09310046 264.31324806 123.13496208 268.30324745 C123.17289657 272.05927403 123.16669267 275.81277649 123.12772942 279.56876755 C123.11733169 281.58980238 123.15102961 283.61091661 123.18643188 285.63166809 C123.04295334 293.97519083 121.27652979 298.17633255 115.27127934 304.02348614 C114.52175715 304.67573571 113.77223497 305.32798529 113 306 C112.36609313 306.55563787 111.73218626 307.11127573 111.07907009 307.68375111 C105.2301821 312.55914732 98.1919844 316.19480717 91.6328125 320.0234375 C90.98199707 320.40419434 90.33118164 320.78495117 89.66064453 321.17724609 C88 322 88 322 86 322 C85.67 322.66 85.34 323.32 85 324 C83.40515062 324.87019348 81.77130001 325.66907465 80.125 326.4375 C74.47870102 329.18670986 69.0480875 332.20946049 63.625 335.375 C62.79983887 335.85654541 61.97467773 336.33809082 61.12451172 336.83422852 C59.49374696 337.78724988 57.86336583 338.74092803 56.23339844 339.6953125 C50.84784559 342.84139847 45.42381326 345.92048211 40 349 C39.08508789 349.51949219 38.17017578 350.03898437 37.22753906 350.57421875 C34.11088845 352.34267208 30.99312923 354.1091552 27.875 355.875 C26.86598633 356.44718262 25.85697266 357.01936523 24.81738281 357.60888672 C23.38797363 358.41737061 23.38797363 358.41737061 21.9296875 359.2421875 C21.07616699 359.7254248 20.22264648 360.20866211 19.34326172 360.70654297 C18.56998535 361.13338379 17.79670898 361.56022461 17 362 C16.40155273 362.37922607 15.80310547 362.75845215 15.18652344 363.14916992 C11.88602502 364.43347508 8.58023385 364.34561396 5.0859375 364.37109375 C4.31625641 364.38012222 3.54657532 364.3891507 2.75357056 364.39845276 C1.12465286 364.41294132 -0.50432285 364.42183854 -2.13330078 364.42553711 C-4.59641089 364.43736274 -7.05695487 364.48649496 -9.51953125 364.53710938 C-18.56975641 364.6317657 -25.24687804 364.13357602 -33 359 C-34.32304937 358.26552123 -35.65101702 357.53981304 -36.984375 356.82421875 C-38.24107593 356.11461607 -39.49626466 355.40232927 -40.75 354.6875 C-41.43771484 354.29780029 -42.12542969 353.90810059 -42.83398438 353.5065918 C-44.89068279 352.34010259 -46.94537518 351.17013638 -49 350 C-50.08796875 349.38382812 -51.1759375 348.76765625 -52.296875 348.1328125 C-57.8272132 344.98996177 -63.33337885 341.80891509 -68.82421875 338.59765625 C-69.8709375 337.98559326 -70.91765625 337.37353027 -71.99609375 336.74291992 C-74.06865566 335.52985603 -76.1403233 334.31526247 -78.2109375 333.09887695 C-83.93046189 329.74942298 -89.69090164 326.49952261 -95.51977539 323.34423828 C-104.24668244 318.61440757 -112.89527827 313.74790935 -121 308 C-121.73992187 307.49082031 -122.47984375 306.98164063 -123.2421875 306.45703125 C-123.82226562 305.97621094 -124.40234375 305.49539063 -125 305 C-125 304.34 -125 303.68 -125 303 C-125.66 303 -126.32 303 -127 303 C-129.35244945 299.47132582 -129.251158 298.02962397 -129.25396729 293.85095215 C-129.25960693 292.56379807 -129.26524658 291.27664398 -129.27105713 289.95048523 C-129.26716838 288.52102605 -129.26307204 287.09156743 -129.25878906 285.66210938 C-129.26149863 284.1591627 -129.26505936 282.65621736 -129.26940918 281.15327454 C-129.27853959 277.06863726 -129.27498626 272.98410083 -129.26865101 268.89946175 C-129.26359439 264.62873178 -129.26828152 260.35801057 -129.27142334 256.08728027 C-129.27506397 248.91477912 -129.27026135 241.74231913 -129.26074219 234.56982422 C-129.24985745 226.27246791 -129.25338295 217.97520989 -129.264395 209.67785597 C-129.27346511 202.55932762 -129.2747545 195.44082888 -129.26951766 188.32229662 C-129.26639644 184.06833821 -129.26599278 179.81442603 -129.27259064 175.56047058 C-129.27835947 171.56155474 -129.27437574 167.56276585 -129.26280212 163.56386375 C-129.26015305 162.09447122 -129.26092484 160.62506803 -129.26532745 159.1556797 C-129.27077432 157.15347291 -129.26273988 155.15124283 -129.25396729 153.14904785 C-129.25321323 152.02743507 -129.25245918 150.9058223 -129.25168228 149.75022125 C-129 147 -129 147 -127 144 C-126.34 144 -125.68 144 -125 144 C-124.79632813 143.42636719 -124.59265625 142.85273438 -124.3828125 142.26171875 C-122.49492151 139.17389704 -119.8926532 137.66109659 -116.875 135.8125 C-116.26261475 135.42811768 -115.65022949 135.04373535 -115.01928711 134.64770508 C-108.41922422 130.55125773 -101.64439317 126.75559752 -94.83251953 123.02490234 C-93.59296012 122.33163424 -92.36478879 121.61766749 -91.14794922 120.88525391 C-88.44649601 119.2649656 -86.36658343 118.046208 -83.2109375 117.6484375 C-82.48132813 117.43445313 -81.75171875 117.22046875 -81 117 C-79.53516613 114.15667928 -79.53516613 114.15667928 -78.625 110.625 C-75.16102011 99.74829704 -69.22559735 92.03485122 -61.42578125 83.7734375 C-58.31915494 80.22157811 -55.95798088 76.39710543 -53.51953125 72.37109375 C-51.67710726 69.49615451 -49.50584006 67.30801058 -47 65 C-44.61990916 62.27989619 -42.41002324 59.70615113 -40.59375 56.578125 C-31.76520248 42.29665106 -15.3636545 34.87280876 -0.66992188 28.2487793 C4.7823536 25.7514994 9.17179809 23.68271127 13 19 C10.67408279 16.39497273 8.42237321 14.5852446 5.375 12.9375 C2 11 2 11 0 8 C-0.25760279 5.30547479 -0.08900053 2.71451625 0 0 Z " fill="#082A1F" transform="translate(129,0)"/>
<path d="M0 0 C6.886672 -0.10148186 13.77315092 -0.1714999 20.66040039 -0.21972656 C23.00292161 -0.23983265 25.3453927 -0.26712166 27.68774414 -0.30175781 C31.05627823 -0.35031841 34.42414831 -0.37297922 37.79296875 -0.390625 C38.83897751 -0.41127014 39.88498627 -0.43191528 40.96269226 -0.45318604 C48.25404022 -0.45543242 48.25404022 -0.45543242 52.09228516 1.88793945 C53.99391921 3.99326786 55.64716495 6.0547297 57.1875 8.4375 C57.92033203 9.54931641 57.92033203 9.54931641 58.66796875 10.68359375 C61.53766403 15.67400226 62.38590936 19.89212969 62.375 25.625 C62.37628906 26.32560547 62.37757813 27.02621094 62.37890625 27.74804688 C62.25266648 34.01986828 60.69273725 39.32601793 58 45 C58.66 45 59.32 45 60 45 C61.41644622 53.1744306 61.16217224 59.47217831 56.30859375 66.421875 C55.10772984 67.95617293 53.88035624 69.47028909 52.62109375 70.95703125 C49.7173463 74.56750293 49.7173463 74.56750293 49.14453125 79 C50.22873394 82.2462677 51.03401198 84.38871071 54 86.265625 C56.31096367 87.24934602 58.64465384 88.12884457 61 89 C65.6372511 91.44986851 68.17663679 93.85962296 70.31640625 98.57421875 C71.89353726 104.17078081 71.83521399 110.49435803 70 116 C70.78375 116.20625 71.5675 116.4125 72.375 116.625 C76.36653338 118.1390299 79.68868636 120.13225386 83.30859375 122.37109375 C85.91435069 123.9481629 88.55782918 125.38909893 91.25 126.8125 C95.73177384 129.23853142 100.07216186 131.83567515 104.375 134.5625 C104.95797852 134.92641846 105.54095703 135.29033691 106.14160156 135.6652832 C109.91250981 138.08811892 112.96084969 140.71482324 116 144 C116.50287316 144.42923862 117.00574633 144.85847723 117.52385807 145.30072308 C121.41507583 148.9834487 122.44436585 151.94704253 122.78208923 157.2792511 C122.82678367 159.83465911 122.83841973 162.39077519 122.82397461 164.9465332 C122.8370314 166.35991835 122.85258602 167.77328228 122.87043762 169.18661499 C122.91048538 173.01137102 122.91235789 176.83523559 122.90474772 180.6601603 C122.90152926 183.86074388 122.91621262 187.06114935 122.93056399 190.26169461 C122.96380877 197.81774743 122.96518635 205.37335285 122.94702148 212.92944336 C122.92891321 220.70588811 122.96581062 228.48070294 123.02973169 236.25686961 C123.08270718 242.94936104 123.10056392 249.6413357 123.09081846 256.3340289 C123.08539782 260.32421952 123.09310046 264.31324806 123.13496208 268.30324745 C123.17289657 272.05927403 123.16669267 275.81277649 123.12772942 279.56876755 C123.11733169 281.58980238 123.15102961 283.61091661 123.18643188 285.63166809 C123.04295334 293.97519083 121.27652979 298.17633255 115.27127934 304.02348614 C114.52175715 304.67573571 113.77223497 305.32798529 113 306 C112.36609313 306.55563787 111.73218626 307.11127573 111.07907009 307.68375111 C105.2301821 312.55914732 98.1919844 316.19480717 91.6328125 320.0234375 C90.98199707 320.40419434 90.33118164 320.78495117 89.66064453 321.17724609 C88 322 88 322 86 322 C85.67 322.66 85.34 323.32 85 324 C83.40515062 324.87019348 81.77130001 325.66907465 80.125 326.4375 C74.47870102 329.18670986 69.0480875 332.20946049 63.625 335.375 C62.79983887 335.85654541 61.97467773 336.33809082 61.12451172 336.83422852 C59.49374696 337.78724988 57.86336583 338.74092803 56.23339844 339.6953125 C50.84784559 342.84139847 45.42381326 345.92048211 40 349 C39.08508789 349.51949219 38.17017578 350.03898437 37.22753906 350.57421875 C34.11088845 352.34267208 30.99312923 354.1091552 27.875 355.875 C26.86598633 356.44718262 25.85697266 357.01936523 24.81738281 357.60888672 C23.38797363 358.41737061 23.38797363 358.41737061 21.9296875 359.2421875 C21.07616699 359.7254248 20.22264648 360.20866211 19.34326172 360.70654297 C18.56998535 361.13338379 17.79670898 361.56022461 17 362 C16.40155273 362.37922607 15.80310547 362.75845215 15.18652344 363.14916992 C11.88602502 364.43347508 8.58023385 364.34561396 5.0859375 364.37109375 C4.31625641 364.38012222 3.54657532 364.3891507 2.75357056 364.39845276 C1.12465286 364.41294132 -0.50432285 364.42183854 -2.13330078 364.42553711 C-4.59641089 364.43736274 -7.05695487 364.48649496 -9.51953125 364.53710938 C-18.56975641 364.6317657 -25.24687804 364.13357602 -33 359 C-34.32304937 358.26552123 -35.65101702 357.53981304 -36.984375 356.82421875 C-38.24107593 356.11461607 -39.49626466 355.40232927 -40.75 354.6875 C-41.43771484 354.29780029 -42.12542969 353.90810059 -42.83398438 353.5065918 C-44.89068279 352.34010259 -46.94537518 351.17013638 -49 350 C-50.08796875 349.38382812 -51.1759375 348.76765625 -52.296875 348.1328125 C-57.8272132 344.98996177 -63.33337885 341.80891509 -68.82421875 338.59765625 C-69.8709375 337.98559326 -70.91765625 337.37353027 -71.99609375 336.74291992 C-74.06865566 335.52985603 -76.1403233 334.31526247 -78.2109375 333.09887695 C-83.93046189 329.74942298 -89.69090164 326.49952261 -95.51977539 323.34423828 C-104.24668244 318.61440757 -112.89527827 313.74790935 -121 308 C-121.73992187 307.49082031 -122.47984375 306.98164063 -123.2421875 306.45703125 C-123.82226562 305.97621094 -124.40234375 305.49539063 -125 305 C-125 304.34 -125 303.68 -125 303 C-125.66 303 -126.32 303 -127 303 C-129.35244945 299.47132582 -129.251158 298.02962397 -129.25396729 293.85095215 C-129.25960693 292.56379807 -129.26524658 291.27664398 -129.27105713 289.95048523 C-129.26716838 288.52102605 -129.26307204 287.09156743 -129.25878906 285.66210938 C-129.26149863 284.1591627 -129.26505936 282.65621736 -129.26940918 281.15327454 C-129.27853959 277.06863726 -129.27498626 272.98410083 -129.26865101 268.89946175 C-129.26359439 264.62873178 -129.26828152 260.35801057 -129.27142334 256.08728027 C-129.27506397 248.91477912 -129.27026135 241.74231913 -129.26074219 234.56982422 C-129.24985745 226.27246791 -129.25338295 217.97520989 -129.264395 209.67785597 C-129.27346511 202.55932762 -129.2747545 195.44082888 -129.26951766 188.32229662 C-129.26639644 184.06833821 -129.26599278 179.81442603 -129.27259064 175.56047058 C-129.27835947 171.56155474 -129.27437574 167.56276585 -129.26280212 163.56386375 C-129.26015305 162.09447122 -129.26092484 160.62506803 -129.26532745 159.1556797 C-129.27077432 157.15347291 -129.26273988 155.15124283 -129.25396729 153.14904785 C-129.25321323 152.02743507 -129.25245918 150.9058223 -129.25168228 149.75022125 C-129 147 -129 147 -127 144 C-126.34 144 -125.68 144 -125 144 C-124.79632813 143.42636719 -124.59265625 142.85273438 -124.3828125 142.26171875 C-122.49492151 139.17389704 -119.8926532 137.66109659 -116.875 135.8125 C-116.26261475 135.42811768 -115.65022949 135.04373535 -115.01928711 134.64770508 C-108.41922422 130.55125773 -101.64439317 126.75559752 -94.83251953 123.02490234 C-93.59296012 122.33163424 -92.36478879 121.61766749 -91.14794922 120.88525391 C-88.44649601 119.2649656 -86.36658343 118.046208 -83.2109375 117.6484375 C-82.48132813 117.43445313 -81.75171875 117.22046875 -81 117 C-79.53516613 114.15667928 -79.53516613 114.15667928 -78.625 110.625 C-75.16102011 99.74829704 -69.22559735 92.03485122 -61.42578125 83.7734375 C-58.31915494 80.22157811 -55.95798088 76.39710543 -53.51953125 72.37109375 C-51.67710726 69.49615451 -49.50584006 67.30801058 -47 65 C-44.61990916 62.27989619 -42.41002324 59.70615113 -40.59375 56.578125 C-31.76520248 42.29665106 -15.3636545 34.87280876 -0.66992188 28.2487793 C4.7823536 25.7514994 9.17179809 23.68271127 13 19 C10.67408279 16.39497273 8.42237321 14.5852446 5.375 12.9375 C2 11 2 11 0 8 C-0.25760279 5.30547479 -0.08900053 2.71451625 0 0 Z M66 136 C65.85304687 136.53367188 65.70609375 137.06734375 65.5546875 137.6171875 C61.02039596 152.67937432 51.24924498 163.49458033 37.6875 171.1875 C31.64267554 174.31618551 25.44903369 176.83238677 19 179 C18.05253906 179.32226562 17.10507813 179.64453125 16.12890625 179.9765625 C0.00727288 184.55827504 -18.2550863 183.31781854 -34 178 C-35.14726563 177.62617188 -36.29453125 177.25234375 -37.4765625 176.8671875 C-55.94617501 170.33577886 -68.64905098 158.64442386 -77.4375 141.3125 C-77.953125 140.219375 -78.46875 139.12625 -79 138 C-82.3257906 138.64394579 -84.70274689 139.89249846 -87.5625 141.6875 C-91.23773653 143.95127198 -94.94568789 146.08530742 -98.75 148.125 C-107.13737657 152.69028092 -115.0509213 157.40953411 -118 167 C-118.31154317 170.56207677 -118.30405281 174.11619462 -118.30639648 177.69018555 C-118.31472 178.76725266 -118.32304352 179.84431976 -118.33161926 180.95402527 C-118.35571472 184.5149599 -118.36449179 188.07571123 -118.37109375 191.63671875 C-118.38006175 194.11668451 -118.38918363 196.59664972 -118.39845276 199.07661438 C-118.41494503 204.27757074 -118.42264309 209.47846272 -118.42553711 214.67944336 C-118.43091518 221.32948018 -118.46857142 227.97889263 -118.51428127 234.62878704 C-118.54409243 239.75305871 -118.5512616 244.87718459 -118.55226326 250.00153542 C-118.55645891 252.45224605 -118.56886669 254.90295739 -118.58978081 257.35358238 C-118.61677215 260.79045109 -118.61184493 264.22591962 -118.59936523 267.6628418 C-118.61419952 268.66631653 -118.62903381 269.66979126 -118.64431763 270.70367432 C-118.56539137 278.37433753 -116.59954603 284.98074776 -111.39047909 290.79719067 C-106.56589646 295.32044628 -100.52094113 298.43400797 -94.8125 301.6875 C-93.75820801 302.2954541 -92.70391602 302.9034082 -91.61767578 303.52978516 C-83.2894001 308.31331423 -74.88842254 312.95996249 -66.45703125 317.55859375 C-60.92393226 320.57951844 -55.45613748 323.70764215 -49.99365234 326.85449219 C-47.63004995 328.21256498 -45.26246793 329.56356129 -42.89453125 330.9140625 C-41.99017334 331.43000977 -41.08581543 331.94595703 -40.15405273 332.47753906 C-38.31404669 333.52693898 -36.47371901 334.57577515 -34.63305664 335.62402344 C-30.79145056 337.81561671 -26.95522905 340.01108195 -23.1640625 342.2890625 C-22.11992188 342.91554688 -21.07578125 343.54203125 -20 344.1875 C-19.13375 344.71730469 -18.2675 345.24710938 -17.375 345.79296875 C-11.21387115 348.92420035 -3.51250679 348.93568549 3.0625 347.0625 C9.55075399 344.63770883 15.47737817 340.96379001 21.44433594 337.48828125 C25.36948582 335.20248514 29.30582536 332.93613451 33.24047852 330.66674805 C35.46558637 329.3828999 37.69002739 328.09789539 39.91381836 326.81176758 C48.33189878 321.94648408 56.78325762 317.14303667 65.26391602 312.38769531 C70.49353778 309.44793565 75.65539479 306.4171724 80.79003906 303.31469727 C83.35778153 301.78715714 85.97461764 300.37852705 88.625 299 C97.53134923 294.16260523 104.88180659 289.14560111 108 279 C108.31013383 275.43247867 108.30405296 271.87324943 108.30639648 268.29394531 C108.31888176 266.67593521 108.31888176 266.67593521 108.33161926 265.02523804 C108.35571275 261.45949695 108.36449113 257.89393886 108.37109375 254.328125 C108.38006123 251.84576361 108.3891831 249.36340276 108.39845276 246.88104248 C108.41494402 241.67588996 108.42264303 236.47080178 108.42553711 231.265625 C108.4295674 224.60649713 108.46858616 217.9480647 108.51428127 211.28908157 C108.54407342 206.16056123 108.55126117 201.03218669 108.55226326 195.90358734 C108.55646195 193.44925914 108.56888199 190.99493037 108.58978081 188.54068756 C108.61673536 185.10121961 108.61185605 181.66315362 108.59936523 178.22363281 C108.62161667 176.7130278 108.62161667 176.7130278 108.64431763 175.17190552 C108.57400513 168.34829347 107.05335928 163.53365432 103 158 C99.03037741 154.13868907 94.56585321 151.34196139 89.8125 148.5625 C89.15975098 148.17634521 88.50700195 147.79019043 87.83447266 147.39233398 C77.22250476 141.08340286 77.22250476 141.08340286 66 136 Z " fill="#F3F5F4" transform="translate(129,0)"/>
<path d="M0 0 C7.04321382 0.70432138 12.68285831 3.16698042 17.375 8.5 C21.65702715 13.76282666 22.5650246 17.94532213 22.44140625 24.703125 C21.24898001 33.60938826 15.73088359 42.15764173 9 48 C-0.53081555 55.03495747 -10.12732189 58.56363041 -21.609375 60.984375 C-22.40835205 61.15420898 -23.2073291 61.32404297 -24.03051758 61.49902344 C-25.59500087 61.8246467 -27.16254231 62.13601772 -28.7331543 62.43066406 C-33.68438415 63.4304686 -36.97145869 64.93549948 -41 68 C-36.22586302 68.23690566 -36.22586302 68.23690566 -31.67114258 67.03881836 C-28.53950235 65.82091057 -25.79554622 65.53657768 -22.44921875 65.25390625 C-20.56493164 65.08084961 -20.56493164 65.08084961 -18.64257812 64.90429688 C-16.01782476 64.67746634 -13.39282383 64.45348143 -10.76757812 64.23242188 C-0.99851876 63.32797188 5.9210643 61.57831274 14 56 C14.66 56 15.32 56 16 56 C16.268125 55.236875 16.53625 54.47375 16.8125 53.6875 C17.94424112 51.12619116 18.91223401 49.80307062 21 48 C20.70126737 53.9746526 18.02500839 57.79490175 14 62 C11.73037883 63.65108705 9.54571397 64.75028587 7 66 C6.071875 66.556875 5.14375 67.11375 4.1875 67.6875 C-0.04825639 70.22895383 -3.77206485 70.32221669 -8.625 70.5625 C-9.42679687 70.60568359 -10.22859375 70.64886719 -11.0546875 70.69335938 C-13.0362511 70.79951457 -15.01810271 70.90026855 -17 71 C-16.35933594 71.29132813 -15.71867187 71.58265625 -15.05859375 71.8828125 C-7.13562465 75.63766224 -0.4348872 79.46987726 3.29296875 87.71875 C4.38328081 91.23666295 4.63855488 94.72118347 4.82421875 98.38671875 C4.90924521 101.02663562 4.90924521 101.02663562 5.7421875 103.578125 C6 106 6 106 4.55859375 108.09765625 C3.85863281 108.74605469 3.15867187 109.39445312 2.4375 110.0625 C1.75558594 110.71347656 1.07367188 111.36445312 0.37109375 112.03515625 C-4.48038625 116.05541068 -9.09104349 118.61068932 -15.0625 120.625 C-19.08534328 121.99652311 -23.06970702 123.38033295 -27 125 C-22.57071195 127.9528587 -17.77423307 127.4454266 -12.76171875 126.640625 C-4.78606704 124.60194373 -0.47269868 118.94754556 3.76171875 112.1875 C4.79231194 110.43075034 5.79890533 108.65955083 6.7734375 106.87109375 C7.17820312 106.25363281 7.58296875 105.63617188 8 105 C8.66 105 9.32 105 10 105 C10 106.32 10 107.64 10 109 C11.65 109 13.3 109 15 109 C15 112 15 112 13 115 C9.875 115.6875 9.875 115.6875 7 116 C8.485 116.99 8.485 116.99 10 118 C6.37202742 128.79378177 0.07268506 138.64764489 -10.1953125 144.18359375 C-22.09258827 149.6886044 -34.81176127 151.07998452 -47.4453125 147.03125 C-56.23800482 143.48190631 -62.16727299 138.40877565 -68 131 C-68.53496094 130.34644531 -69.06992188 129.69289062 -69.62109375 129.01953125 C-72.88215008 124.24342325 -74.0027812 118.19178333 -74.4375 112.5 C-74.71500572 109.03117845 -75.56606661 106.57163845 -77.0625 103.4375 C-80.35293368 95.77583326 -80.46087287 86.06411435 -77.65625 78.26171875 C-72.9770127 69.04671133 -65.90859104 64.79413278 -57 60 C-53.47560152 58.03203498 -50.75798226 55.9422108 -47.875 53.125 C-41.57743754 47.49303357 -34.71468443 44.94838545 -26.828125 42.1640625 C-24.90604842 41.48494527 -22.98417845 40.805243 -21.0625 40.125 C-20.10077881 39.7851709 -19.13905762 39.4453418 -18.14819336 39.09521484 C-10.83319383 36.44943049 -4.54348274 33.21792442 2 29 C2.73476562 28.66742188 3.46953125 28.33484375 4.2265625 27.9921875 C6.34244974 27.04816413 6.34244974 27.04816413 7.25 24 C8.54112377 18.44002557 9.05853319 12.5070523 6.8125 7.1875 C4.68655084 4.62169929 2.42003622 2.28922345 0 0 Z " fill="#09291C" transform="translate(159,4)"/>
<path d="M0 0 C6.19021113 1.19099074 11.56595649 4.95081579 17 8 C17.70012207 8.38929688 18.40024414 8.77859375 19.12158203 9.1796875 C31.89794474 16.3196704 43.26062905 22.77455915 49 37 C50.18763691 42.39501212 50.16143504 47.71020313 50.17700195 53.20532227 C50.18357315 54.2191951 50.19014435 55.23306793 50.19691467 56.27766418 C50.21657952 59.6239124 50.2282964 62.97011582 50.23828125 66.31640625 C50.24235678 67.46412947 50.2464323 68.61185268 50.25063133 69.79435539 C50.27146511 75.87177218 50.28577733 81.94916659 50.29516602 88.02661133 C50.30621225 94.27827336 50.34059977 100.52957771 50.38033772 106.78111362 C50.40658484 111.61039353 50.41486515 116.43958931 50.41844749 121.26893425 C50.42329411 123.57202502 50.43485254 125.87511252 50.45348549 128.17813301 C50.67392159 157.23448376 50.67392159 157.23448376 40.9765625 169 C35.40781589 174.63477918 29.34290941 178.25919525 22.4375 182.0625 C20.36172546 183.22089966 18.28620991 184.37976351 16.2109375 185.5390625 C15.16776367 186.11946289 14.12458984 186.69986328 13.04980469 187.29785156 C8.53778731 189.81608605 4.04796592 192.37234318 -0.4375 194.9375 C-1.27982178 195.41856201 -2.12214355 195.89962402 -2.98999023 196.39526367 C-10.88056322 200.91170071 -18.73049806 205.49757692 -26.56811523 210.10522461 C-35.70764595 215.46255612 -44.96318065 220.57066396 -54.4375 225.3125 C-55.11748047 225.65861328 -55.79746094 226.00472656 -56.49804688 226.36132812 C-65.2960037 230.77320677 -74.77587413 231.48885158 -84.34765625 229.19921875 C-92.58876523 226.22751774 -99.93114124 221.7046009 -107.31201172 217.06054688 C-113.67152316 213.06492672 -120.15361616 209.33118786 -126.7578125 205.7578125 C-137.33362819 200.02393653 -147.78964578 194.19728523 -157.98046875 187.80078125 C-160.98771423 186.00732696 -164.03381782 184.4562364 -167.1875 182.9375 C-179.4313144 176.93657911 -189.7959337 169.02634143 -194.97210693 156.04589844 C-197.71659447 146.84500314 -196.7103203 136.45860006 -196.6640625 126.96875 C-196.6674361 124.52599853 -196.67229323 122.0832487 -196.67855835 119.64050293 C-196.68590386 114.53670165 -196.67529856 109.43333979 -196.65185547 104.32958984 C-196.62337007 97.81325037 -196.63978641 91.29794086 -196.66971779 84.7816391 C-196.68785317 79.74217072 -196.682004 74.70294336 -196.66907883 69.66346741 C-196.66576209 67.26188533 -196.66977033 64.86028081 -196.68147659 62.45872498 C-196.74393645 46.04632438 -196.486572 33.63324918 -184.515625 21.24609375 C-178.02892159 15.45439428 -170.28408498 11.49505684 -162.65234375 7.421875 C-159.32459407 5.63792672 -156.0503601 3.76494487 -152.77734375 1.8828125 C-151 1 -151 1 -149 1 C-149.28080411 4.28540804 -149.563979 5.62753188 -152.1171875 7.80859375 C-153.02726562 8.34613281 -153.93734375 8.88367188 -154.875 9.4375 C-156.36773437 10.33082031 -156.36773437 10.33082031 -157.890625 11.2421875 C-160.78680163 12.87947328 -163.69710393 14.48275947 -166.625 16.0625 C-176.9860886 21.67106648 -185.93164393 27.34094838 -190 39 C-190.30044315 41.36725523 -190.30044315 41.36725523 -190.26742554 43.82389832 C-190.27595551 44.76711945 -190.28448547 45.71034058 -190.29327393 46.68214417 C-190.29236755 47.70509079 -190.29146118 48.72803741 -190.29052734 49.78198242 C-190.29724457 50.8688031 -190.30396179 51.95562378 -190.31088257 53.07537842 C-190.32988133 56.66878839 -190.33378808 60.26201168 -190.3359375 63.85546875 C-190.34236528 66.35785499 -190.34909362 68.86024047 -190.35610962 71.36262512 C-190.36808791 76.61065884 -190.37187571 81.85864534 -190.37060547 87.10668945 C-190.36953859 92.48506522 -190.3835898 97.86315325 -190.41162109 103.24145508 C-190.44502609 109.74414605 -190.45871449 116.24657884 -190.45738602 122.74935341 C-190.45973998 125.22237928 -190.46855188 127.69540804 -190.48405075 130.16838646 C-190.50374546 133.6362372 -190.49785758 137.10317812 -190.48583984 140.57104492 C-190.49707886 141.58387039 -190.50831787 142.59669586 -190.51989746 143.64021301 C-190.43473069 153.3591423 -187.49858663 161.63799638 -180.75390625 168.73046875 C-175.2368988 173.27710893 -168.81855861 176.36254166 -162.50927734 179.66552734 C-158.32661205 181.8899337 -154.22938156 184.26015843 -150.125 186.625 C-148.37129404 187.63055773 -146.6173799 188.63575244 -144.86328125 189.640625 C-143.93596191 190.17236328 -143.00864258 190.70410156 -142.05322266 191.25195312 C-138.63554193 193.20866142 -135.21451427 195.15943612 -131.79296875 197.109375 C-129.91570659 198.1798332 -128.03850193 199.25039217 -126.16131592 200.32098389 C-124.94785298 201.01278315 -123.73419555 201.70424141 -122.52032471 202.39532471 C-116.00490217 206.10522795 -109.52498894 209.86027196 -103.10668945 213.73583984 C-98.81665028 216.31016165 -94.42557345 218.66937256 -90 221 C-88.90945312 221.62648438 -88.90945312 221.62648438 -87.796875 222.265625 C-80.6373402 226.03100997 -72.71914918 226.07104066 -64.8515625 224.59765625 C-62.77393059 223.90360017 -60.94303849 223.01630559 -59 222 C-57.47632813 221.22849609 -57.47632813 221.22849609 -55.921875 220.44140625 C-45.55778593 215.09331682 -35.48659342 209.18694191 -25.38134766 203.37060547 C-18.14788917 199.20732518 -10.90096168 195.06815081 -3.62890625 190.97265625 C5.45759763 185.85521347 14.54418061 180.73696272 23.5625 175.5 C24.23385986 175.11537598 24.90521973 174.73075195 25.59692383 174.33447266 C34.29055211 169.24807127 41.0286283 162.9805527 44 153 C44.42749598 149.35840059 44.42043957 145.74626679 44.40405273 142.08276367 C44.41091599 141.00540451 44.41777924 139.92804535 44.42485046 138.81803894 C44.44310337 135.26788023 44.43928228 131.71816418 44.43359375 128.16796875 C44.43815686 125.69086056 44.44346282 123.21375364 44.44947815 120.73664856 C44.45840679 115.54760594 44.4559895 110.35871724 44.44604492 105.16967773 C44.43456684 98.53544696 44.45475095 91.90174936 44.48396206 85.26758862 C44.50235259 80.15188751 44.50202566 75.03631342 44.49632454 69.92058754 C44.49617162 67.47547979 44.50219185 65.03036328 44.51461601 62.58528709 C44.52957416 59.15832975 44.51881167 55.73234778 44.50170898 52.30541992 C44.51137695 51.30508728 44.52104492 50.30475464 44.53100586 49.27410889 C44.4372819 40.25813282 42.01316685 32.25544824 35.74609375 25.58203125 C30.81002798 21.1097569 25.20332235 18.03882928 19.25 15.125 C14.64402502 12.86949679 10.16277222 10.484091 5.75 7.875 C4.65171875 7.23304688 3.5534375 6.59109375 2.421875 5.9296875 C1.22304688 4.97449219 1.22304688 4.97449219 0 4 C0 2.68 0 1.36 0 0 Z " fill="#171717" transform="translate(197,127)"/>
<path d="M0 0 C0 3 0 3 -1.4765625 6.62890625 C-3.22240155 11.1292228 -3.46382572 15.1475477 -3.375 19.9375 C-3.36484863 20.73019287 -3.35469727 21.52288574 -3.34423828 22.33959961 C-3.07970499 32.29856044 -0.06578643 39.12028222 6 47 C6.45632812 47.60714844 6.91265625 48.21429688 7.3828125 48.83984375 C15.68961609 58.42963533 30.70027798 63.94525594 43 65 C61.74335361 66.23920081 79.0418837 64.82631021 95 54 C96.67142854 52.33810885 98.33908041 50.67239399 100 49 C100.66 49 101.32 49 102 49 C102.2578125 48.484375 102.515625 47.96875 102.78125 47.4375 C107.890625 37.21875 107.890625 37.21875 113 27 C113.99208778 37.60431605 111.42968951 48.77173361 105.125 57.5 C104.10672337 58.68713658 103.06546322 59.8550246 102 61 C101.52304688 61.5775 101.04609375 62.155 100.5546875 62.75 C90.61851794 73.93443207 73.09227381 81.13508112 58.33081055 82.19091797 C55.46740883 82.26775748 52.61427971 82.2782886 49.75 82.25 C48.73220459 82.24105713 47.71440918 82.23211426 46.66577148 82.22290039 C26.62535831 81.91434038 9.23093462 76.43403132 -5.1171875 61.84765625 C-12.48909983 53.09944269 -16.42957334 42.14249244 -16.27734375 30.7421875 C-15.08472655 18.95039486 -7.7762166 8.51680865 0 0 Z " fill="#0D2C1F" transform="translate(74,91)"/>
<path d="M0 0 C0.99 0 1.98 0 3 0 C3.03867188 1.45019531 3.03867188 1.45019531 3.078125 2.9296875 C3.38698519 10.01943284 3.99614386 15.89347261 7.0234375 22.39453125 C8.63528643 26.69494418 8.95232151 31.15564281 9.41015625 35.703125 C10.96493937 44.39343595 17.18214935 52.07633915 24.0625 57.375 C34.65533746 64.72099073 45.24786395 66.05280793 58 65 C68.88193866 62.74414464 78.71089862 57.33339104 85 48 C87.36633847 43.79317606 89.4725662 39.58230139 91 35 C89.35 34.67 87.7 34.34 86 34 C90.3563815 31.09574566 95.29765893 30.34677318 100.375 29.3125 C103.40447584 28.16836889 103.40447584 28.16836889 104.375 24.375 C104.58125 23.26125 104.7875 22.1475 105 21 C105.99 21.66 106.98 22.32 108 23 C107.69381595 26.67420866 107.24228216 27.78135513 104.4375 30.3125 C103.633125 30.869375 102.82875 31.42625 102 32 C106.54170996 30.09115308 106.54170996 30.09115308 111 28 C111 30.64 111 33.28 111 36 C110.34 35.67 109.68 35.34 109 35 C108.55269531 35.95261719 108.10539062 36.90523437 107.64453125 37.88671875 C107.0344022 39.15390985 106.42369415 40.42082228 105.8125 41.6875 C105.52052734 42.31333984 105.22855469 42.93917969 104.92773438 43.58398438 C102.85779584 47.83514846 100.54008242 50.77768876 97 54 C96.4121875 54.59683594 95.824375 55.19367188 95.21875 55.80859375 C81.54700321 68.76568105 63.49203875 70.71684126 45.53125 70.2734375 C30.24807828 69.64868622 15.54098319 64.77377222 4.3125 54.0625 C-5.08861676 43.76077205 -7.68186622 33.18133775 -7.39453125 19.546875 C-6.97191546 12.18874994 -4.03782168 6.05673252 0 0 Z " fill="#F2F6F5" transform="translate(77,87)"/>
<path d="M0 0 C3.18732254 -0.08797281 6.37432788 -0.14071341 9.5625 -0.1875 C10.45775391 -0.21263672 11.35300781 -0.23777344 12.27539062 -0.26367188 C19.15470452 -0.33926873 24.03174072 0.488396 29.4375 5.0625 C31.72782825 9.3683171 31.64539835 13.22247804 31 18 C29.27712781 22.26184172 27.04540053 23.92263216 23 26 C25.30629715 30.87757312 27.56250861 35.6103686 30.8125 39.9375 C33 43 33 43 33 46 C29.75493125 46.79471071 27.21215892 47.01275074 24 46 C21.00289394 42.3407426 19.06229198 38.23795604 17 34 C15.76881233 31.81076895 14.55572059 29.98488489 13 28 C11.68 27.67 10.36 27.34 9 27 C9 33.27 9 39.54 9 46 C6.03 46 3.06 46 0 46 C0 37.09 0 28.18 0 19 C3.465 18.505 3.465 18.505 7 18 C6.4946875 17.3709375 5.989375 16.741875 5.46875 16.09375 C4.8190625 15.2378125 4.169375 14.381875 3.5 13.5 C2.52546875 12.24703125 2.52546875 12.24703125 1.53125 10.96875 C-0.50787114 7.01535188 -0.26361632 4.40615848 0 0 Z " fill="#E9EFED" transform="translate(111,201)"/>
<path d="M0 0 C3.30188947 0.05884555 5.20142225 0.83163684 7.53515625 3.12890625 C11.41655476 7.94935278 13.68886902 11.55397511 13.59765625 17.84765625 C13.58863281 18.65589844 13.57960937 19.46414062 13.5703125 20.296875 C13.55871094 20.91175781 13.54710937 21.52664062 13.53515625 22.16015625 C14.50453125 22.07765625 15.47390625 21.99515625 16.47265625 21.91015625 C21.90248888 21.89909753 27.03819335 24.19625285 31.2734375 27.52734375 C33.33644359 30.19711634 33.00739553 32.6166805 32.875 35.87890625 C32.32835971 39.54830771 31.04846829 41.45834581 28.53515625 44.16015625 C24.42094187 46.91728113 20.59301891 48.79238908 15.53515625 48.16015625 C18.53515625 46.16015625 18.53515625 46.16015625 21.59765625 44.72265625 C24.75809605 43.3393547 24.75809605 43.3393547 26.53515625 40.16015625 C26.22675026 38.00740677 26.22675026 38.00740677 25.53515625 36.16015625 C25.00921875 37.55234375 25.00921875 37.55234375 24.47265625 38.97265625 C21.93596606 43.14592075 20.06413885 43.62201121 15.53515625 45.16015625 C15.86515625 43.84015625 16.19515625 42.52015625 16.53515625 41.16015625 C14.88515625 40.83015625 13.23515625 40.50015625 11.53515625 40.16015625 C11.53515625 38.84015625 11.53515625 37.52015625 11.53515625 36.16015625 C8.82757297 38.59942046 7.18818673 41.27994289 5.34765625 44.41015625 C1.31026958 50.82747611 -2.86068776 55.6798779 -9.96484375 58.59765625 C-15.19131772 59.43762528 -19.56042077 60.11236774 -24.46484375 57.66015625 C-25.12484375 57.16515625 -25.78484375 56.67015625 -26.46484375 56.16015625 C-23.91143844 53.60675094 -21.80765933 53.25871932 -18.33984375 52.28515625 C-13.01774107 50.67859397 -8.14991318 49.17657081 -3.46484375 46.16015625 C-2.54832031 45.60199219 -1.63179687 45.04382813 -0.6875 44.46875 C2.43017686 42.21495617 4.4751319 40.42186147 6.53515625 37.16015625 C7.20827427 29.23499284 5.72007903 19.45283701 0.53515625 13.16015625 C-4.41776997 8.47677703 -10.46246599 5.30028906 -16.46484375 2.16015625 C-16.46484375 1.83015625 -16.46484375 1.50015625 -16.46484375 1.16015625 C-10.98062558 0.65949026 -5.49407832 0.35698449 0 0 Z " fill="#09271B" transform="translate(157.46484375,72.83984375)"/>
<path d="M0 0 C6.19021113 1.19099074 11.56595649 4.95081579 17 8 C17.70012207 8.38929688 18.40024414 8.77859375 19.12158203 9.1796875 C31.89794474 16.3196704 43.26062905 22.77455915 49 37 C50.18763691 42.39501212 50.16143504 47.71020313 50.17700195 53.20532227 C50.18685875 54.72613152 50.18685875 54.72613152 50.19691467 56.27766418 C50.21657952 59.6239124 50.2282964 62.97011582 50.23828125 66.31640625 C50.24235678 67.46412947 50.2464323 68.61185268 50.25063133 69.79435539 C50.27146511 75.87177218 50.28577733 81.94916659 50.29516602 88.02661133 C50.30621225 94.27827336 50.34059977 100.52957771 50.38033772 106.78111362 C50.40658484 111.61039353 50.41486515 116.43958931 50.41844749 121.26893425 C50.42329411 123.57202502 50.43485254 125.87511252 50.45348549 128.17813301 C50.67056343 156.79183469 50.67056343 156.79183469 44.36494446 163.82325745 C43.91451279 164.21158249 43.46408112 164.59990753 43 165 C42 164 42 164 41.8125 160.6875 C42 157 42 157 42.99500465 155.06113625 C44.17298254 152.64523161 44.25633376 151.01238228 44.26742554 148.33432007 C44.27595551 147.40088776 44.28448547 146.46745544 44.29327393 145.5057373 C44.29191437 143.97995056 44.29191437 143.97995056 44.29052734 142.42333984 C44.29724457 141.34641876 44.30396179 140.26949768 44.31088257 139.15994263 C44.32990564 135.59356082 44.33378947 132.02736691 44.3359375 128.4609375 C44.34236423 125.97954226 44.34909249 123.49814779 44.35610962 121.01675415 C44.36809445 115.80981694 44.37178938 110.60294612 44.37060547 105.39599609 C44.36927508 98.7381481 44.39766368 92.08079246 44.43214989 85.42302513 C44.45444177 80.29446476 44.45844224 75.16600696 44.45738602 70.03740311 C44.45974009 67.58391473 44.46855261 65.13042344 44.48405075 62.67698288 C44.50374874 59.23536427 44.49785604 55.79466219 44.48583984 52.35302734 C44.50269836 50.84545868 44.50269836 50.84545868 44.51989746 49.30743408 C44.44015455 40.27370152 42.02606302 32.26918057 35.74609375 25.58203125 C30.81002798 21.1097569 25.20332235 18.03882928 19.25 15.125 C14.64402502 12.86949679 10.16277222 10.484091 5.75 7.875 C4.65171875 7.23304688 3.5534375 6.59109375 2.421875 5.9296875 C1.62265625 5.29289063 0.8234375 4.65609375 0 4 C0 2.68 0 1.36 0 0 Z " fill="#262626" transform="translate(197,127)"/>
<path d="M0 0 C-0.28080411 3.28540804 -0.563979 4.62753188 -3.1171875 6.80859375 C-4.02726562 7.34613281 -4.93734375 7.88367188 -5.875 8.4375 C-7.36773437 9.33082031 -7.36773437 9.33082031 -8.890625 10.2421875 C-11.78680163 11.87947328 -14.69710393 13.48275947 -17.625 15.0625 C-27.9860886 20.67106648 -36.93164393 26.34094838 -41 38 C-41.30044315 40.36725523 -41.30044315 40.36725523 -41.26742554 42.82389832 C-41.27595551 43.76711945 -41.28448547 44.71034058 -41.29327393 45.68214417 C-41.29236755 46.70509079 -41.29146118 47.72803741 -41.29052734 48.78198242 C-41.29724457 49.8688031 -41.30396179 50.95562378 -41.31088257 52.07537842 C-41.32988133 55.66878839 -41.33378808 59.26201168 -41.3359375 62.85546875 C-41.34236528 65.35785499 -41.34909362 67.86024047 -41.35610962 70.36262512 C-41.36808791 75.61065884 -41.37187571 80.85864534 -41.37060547 86.10668945 C-41.36953859 91.48506522 -41.3835898 96.86315325 -41.41162109 102.24145508 C-41.44502609 108.74414605 -41.45871449 115.24657884 -41.45738602 121.74935341 C-41.45973998 124.22237928 -41.46855188 126.69540804 -41.48405075 129.16838646 C-41.50374546 132.6362372 -41.49785758 136.10317812 -41.48583984 139.57104492 C-41.49707886 140.58387039 -41.50831787 141.59669586 -41.51989746 142.64021301 C-41.45926374 149.55951833 -39.874708 154.74663205 -37 161 C-36.67 161.99 -36.34 162.98 -36 164 C-36.99 164.99 -36.99 164.99 -38 166 C-43.54826735 161.37644388 -46.36353471 155.52663806 -47.37249947 148.35072708 C-47.52254203 145.51533626 -47.55229406 142.70500165 -47.53344727 139.86572266 C-47.54206284 138.80089157 -47.55067841 137.73606049 -47.55955505 136.63896179 C-47.58210821 133.14707568 -47.57549476 129.65599919 -47.56640625 126.1640625 C-47.57164691 123.7184526 -47.57792501 121.27284472 -47.58518982 118.82723999 C-47.59557476 113.71155255 -47.59106025 108.59614361 -47.57641602 103.48046875 C-47.55924109 96.94840733 -47.58271899 90.41722664 -47.61790562 83.88526344 C-47.63994438 78.83723197 -47.6384222 73.78940907 -47.6301403 68.74134445 C-47.62932416 66.33417165 -47.63612256 63.92698301 -47.65091133 61.5198555 C-47.73645263 45.07615447 -47.51123796 32.65877273 -35.515625 20.24609375 C-29.02892159 14.45439428 -21.28408498 10.49505684 -13.65234375 6.421875 C-10.32459407 4.63792672 -7.0503601 2.76494487 -3.77734375 0.8828125 C-2 0 -2 0 0 0 Z " fill="#232323" transform="translate(48,128)"/>
<path d="M0 0 C2.8143267 3.3390668 4.23117643 6.75315567 5.77734375 10.8203125 C6.02996475 11.47901337 6.28258575 12.13771423 6.54286194 12.81637573 C7.34707903 14.91701615 8.14252758 17.02084584 8.9375 19.125 C9.72878484 21.20154816 10.52185753 23.27740715 11.31509399 25.35321045 C11.82836763 26.69782684 12.34040781 28.04291477 12.85116577 29.38848877 C14.60943433 34.01420218 16.43905738 38.60571354 18.33813477 43.17529297 C19 45 19 45 19 47 C16.03 47 13.06 47 10 47 C9.67 45.02 9.34 43.04 9 41 C3.39 41 -2.22 41 -8 41 C-8.66 42.98 -9.32 44.96 -10 47 C-12.64 47 -15.28 47 -18 47 C-16.0595279 40.10728139 -13.72180251 33.49532415 -11 26.875 C-10.31167217 25.18523281 -9.6241614 23.49513255 -8.9375 21.8046875 C-8.60854736 20.99612305 -8.27959473 20.18755859 -7.94067383 19.35449219 C-7.05798572 17.14513737 -6.21369321 14.92602577 -5.38671875 12.6953125 C-4.27880174 9.74294774 -3.1130829 6.87025192 -1.8125 4 C-1.46832031 3.236875 -1.12414062 2.47375 -0.76953125 1.6875 C-0.38861328 0.8521875 -0.38861328 0.8521875 0 0 Z " fill="#EDF2F1" transform="translate(85,200)"/>
<path d="M0 0 C0.99 0.33 1.98 0.66 3 1 C2.875 3.25 2.875 3.25 2 6 C0.00715862 7.3440093 -1.99419671 8.67541292 -4 10 C-8.40392362 14.99246641 -11.1073052 19.01653577 -11.15821838 25.80253601 C-11.1680072 26.79111603 -11.17779602 27.77969604 -11.18788147 28.79823303 C-11.19363693 29.88148361 -11.1993924 30.96473419 -11.20532227 32.08081055 C-11.21522186 33.22241638 -11.22512146 34.36402222 -11.23532104 35.54022217 C-11.266967 39.32236643 -11.29170581 43.10452327 -11.31640625 46.88671875 C-11.33697309 49.50560334 -11.35796949 52.12448459 -11.37937927 54.74336243 C-11.42929127 60.93748987 -11.47423563 67.13164302 -11.51740164 73.32582074 C-11.56678678 80.37778181 -11.62170017 87.42969643 -11.67708123 94.48161256 C-11.79087834 108.98769772 -11.89772233 123.49382911 -12 138 C-13.32 137.67 -14.64 137.34 -16 137 C-16.85564728 134.0272449 -17.13105535 131.37225884 -17.14717102 128.28289795 C-17.15432632 127.33816116 -17.16148163 126.39342438 -17.16885376 125.4200592 C-17.17154266 124.39037521 -17.17423157 123.36069122 -17.17700195 122.29980469 C-17.18357315 121.20991745 -17.19014435 120.12003021 -17.19691467 118.99711609 C-17.21663252 115.38870169 -17.2283066 111.78032887 -17.23828125 108.171875 C-17.24235678 106.93884895 -17.2464323 105.70582291 -17.25063133 104.43543243 C-17.26933586 98.58242607 -17.28390345 92.72943603 -17.2922433 86.87640548 C-17.30200948 80.13491692 -17.32831788 73.39375725 -17.36874419 66.65238452 C-17.40261837 60.80152639 -17.41439442 54.95077798 -17.41844749 49.09983063 C-17.42331593 46.61677062 -17.43493713 44.13371419 -17.45348549 41.65071869 C-17.47785243 38.17280452 -17.47691589 34.69574698 -17.4699707 31.21777344 C-17.48278076 30.19618637 -17.49559082 29.1745993 -17.50878906 28.12205505 C-17.43991726 18.63987123 -14.13949083 12.66168852 -7.8046875 5.76953125 C-5.32848656 3.34156799 -3.0803913 1.61020454 0 0 Z " fill="#F2F5F4" transform="translate(23,146)"/>
<path d="M0 0 C3.15001541 1.43645227 5.10202394 3.10429634 7 6 C8.45491151 10.19924695 8.88076891 13.99155206 7.06640625 18.12890625 C4.95501287 21.27955245 2.76956502 24.03068328 -1 25 C-6.31237628 25.42161717 -9.73772763 25.53159711 -14 22 C-17.38997273 18.14244483 -17.50633645 14.31290461 -17.359375 9.375 C-16.84719806 5.99017848 -15.4956694 4.28175488 -13 2 C-8.7161847 -0.85587687 -5.02233251 -0.83578907 0 0 Z " fill="#DAE4E1" transform="translate(81,257)"/>
<path d="M0 0 C8.91 0 17.82 0 27 0 C27 2.31 27 4.62 27 7 C24.03 7 21.06 7 18 7 C18 19.87 18 32.74 18 46 C15.36 46 12.72 46 10 46 C10 33.13 10 20.26 10 7 C6.7 7 3.4 7 0 7 C0 4.69 0 2.38 0 0 Z " fill="#E8EFED" transform="translate(150,201)"/>
<path d="M0 0 C0.99 0 1.98 0 3 0 C3.02333974 14.56844122 3.04091804 29.13687955 3.05181217 43.70533562 C3.05697284 50.46941629 3.06401119 57.23348536 3.07543945 63.99755859 C3.08645478 70.52032554 3.09227779 77.04308494 3.09487724 83.56586075 C3.09673068 86.05944128 3.10034974 88.55302111 3.10573006 91.04659653 C3.11294639 94.52831217 3.11399069 98.00997735 3.11352539 101.49169922 C3.11712067 102.53179138 3.12071594 103.57188354 3.12442017 104.64349365 C3.1230455 105.58862823 3.12167084 106.53376282 3.12025452 107.50753784 C3.12117631 108.33162077 3.1220981 109.1557037 3.12304783 110.00475883 C3 112 3 112 2 114 C0.68 114 -0.64 114 -2 114 C-1.89289216 99.28385114 -1.78015468 84.56775449 -1.66066074 69.85170078 C-1.60531349 63.01923417 -1.55182908 56.18676233 -1.50268555 49.35424805 C-1.45529811 42.76660723 -1.40277841 36.17902051 -1.34705925 29.59144402 C-1.32660102 27.0719327 -1.30789383 24.55240657 -1.29092598 22.03286934 C-1.26695848 18.51738219 -1.23689381 15.00199815 -1.20532227 11.48657227 C-1.19668907 9.907015 -1.19668907 9.907015 -1.18788147 8.29554749 C-1.17809265 7.34337341 -1.16830383 6.39119934 -1.15821838 5.41017151 C-1.15176583 4.57779244 -1.14531328 3.74541338 -1.1386652 2.88781071 C-1 1 -1 1 0 0 Z " fill="#F9FAFA" transform="translate(239,168)"/>
<path d="M0 0 C7.88003929 1.01677926 14.01896286 4.19634719 18.90625 10.4140625 C21.35917935 13.97081005 21.1687869 16.43028365 20.6171875 20.62109375 C19.33219142 25.57402169 16.19154737 28.69207253 11.86010742 31.27709961 C5.6373044 34.38307444 -0.63823917 36.6827421 -7.25 38.8125 C-19.23136998 42.82681208 -29.36669957 47.71221256 -39 56 C-39.66 55.67 -40.32 55.34 -41 55 C-30.8003047 44.84193611 -19.77574757 38.54789179 -6.625 32.9375 C-0.30449412 30.23899807 5.63316991 27.54629545 10 22 C11.45921292 17.62236124 11.88012319 13.55676683 11 9 C9.03806512 6.40205326 6.71334126 4.76047624 4 3 C3.195625 2.38125 2.39125 1.7625 1.5625 1.125 C1.046875 0.75375 0.53125 0.3825 0 0 Z " fill="#132E25" transform="translate(140,4)"/>
<path d="M0 0 C5.61 0 11.22 0 17 0 C17 1.65 17 3.3 17 5 C13.04 5 9.08 5 5 5 C5 6.65 5 8.3 5 10 C8.3 10 11.6 10 15 10 C15 11.65 15 13.3 15 15 C11.7 15 8.4 15 5 15 C5 16.65 5 18.3 5 20 C8.96 20 12.92 20 17 20 C17 21.65 17 23.3 17 25 C11.39 25 5.78 25 0 25 C0 16.75 0 8.5 0 0 Z " fill="#B8C5C1" transform="translate(199,257)"/>
<path d="M0 0 C9.10102984 3.17751473 17.92488741 10.79921175 22.3125 19.375 C22.9375 21.6875 22.9375 21.6875 22.9375 25.6875 C22.2775 26.0175 21.6175 26.3475 20.9375 26.6875 C20.6075 61.6675 20.2775 96.6475 19.9375 132.6875 C19.6075 132.6875 19.2775 132.6875 18.9375 132.6875 C18.93695523 132.13919305 18.93641047 131.5908861 18.93584919 131.02596378 C18.92084929 117.65362077 18.87795919 104.2816141 18.80540943 90.9094553 C18.77115928 84.44260101 18.74603242 77.97598248 18.74194336 71.5090332 C18.73765634 65.26480688 18.70915877 59.02111223 18.66406822 52.77705193 C18.65110635 50.39814288 18.64678085 48.01917016 18.65134621 45.64023018 C18.65626117 42.30067074 18.63011711 38.96265981 18.59692383 35.62329102 C18.60986229 34.1570076 18.60986229 34.1570076 18.62306213 32.66110229 C18.49403 24.88666121 16.24268749 18.90936344 10.61328125 13.421875 C7.15924474 11.18305426 3.67384186 9.02265685 0.125 6.9375 C-0.56787109 6.52628906 -1.26074219 6.11507812 -1.97460938 5.69140625 C-3.6685669 4.6867142 -5.36525696 3.68663175 -7.0625 2.6875 C-3.4453125 -0.3515625 -3.4453125 -0.3515625 0 0 Z " fill="#E3EBE9" transform="translate(218.0625,142.3125)"/>
<path d="M0 0 C5.61 0 11.22 0 17 0 C17 1.32 17 2.64 17 4 C13.04 4 9.08 4 5 4 C5 5.98 5 7.96 5 10 C8.3 10 11.6 10 15 10 C15 11.65 15 13.3 15 15 C11.7 15 8.4 15 5 15 C5 16.98 5 18.96 5 21 C8.96 21 12.92 21 17 21 C17 22.32 17 23.64 17 25 C11.39 25 5.78 25 0 25 C0 16.75 0 8.5 0 0 Z " fill="#C9D4D1" transform="translate(167,257)"/>
<path d="M0 0 C1.86328125 1.99609375 1.86328125 1.99609375 3.3125 4.4375 C3.80363281 5.24058594 4.29476562 6.04367188 4.80078125 6.87109375 C7.74594426 12.09947759 7.46350294 17.06716236 7 23 C6.24855552 25.37666161 5.39225333 26.91162001 4 29 C3.67 29 3.34 29 3 29 C2.81824219 28.19175781 2.63648438 27.38351563 2.44921875 26.55078125 C2.19785156 25.48214844 1.94648438 24.41351563 1.6875 23.3125 C1.32205078 21.72888672 1.32205078 21.72888672 0.94921875 20.11328125 C-1.99443614 10.45857777 -9.87845816 6.41326065 -18.3125 1.8828125 C-18.869375 1.59148437 -19.42625 1.30015625 -20 1 C-20 0.67 -20 0.34 -20 0 C-17.79245484 -0.19656224 -15.58390461 -0.38185459 -13.375 -0.5625 C-12.14523438 -0.66691406 -10.91546875 -0.77132812 -9.6484375 -0.87890625 C-6.15015778 -0.99501618 -3.35840902 -0.98411416 0 0 Z " fill="#F0F5F3" transform="translate(161,74)"/>
<path d="M0 0 C0.94591937 3.43154692 1.46898493 6.45134734 1 10 C-0.98159883 12.22817787 -3.09028045 13.64336189 -5.57421875 15.28515625 C-11.01818855 19.13363088 -14.30389811 25.00866246 -17 31 C-17.99 30.67 -18.98 30.34 -20 30 C-20.48934195 20.99248333 -19.02810334 14.56135525 -12.890625 7.7109375 C-9.92948346 5.03122676 -4.17968781 0 0 0 Z " fill="#EBF1EF" transform="translate(104,67)"/>
<path d="M0 0 C5.61 0 11.22 0 17 0 C17 1.65 17 3.3 17 5 C13.04 5 9.08 5 5 5 C5 6.65 5 8.3 5 10 C8.3 10 11.6 10 15 10 C15 11.65 15 13.3 15 15 C11.7 15 8.4 15 5 15 C5 18.3 5 21.6 5 25 C3.35 25 1.7 25 0 25 C0 16.75 0 8.5 0 0 Z " fill="#D0DAD7" transform="translate(104,257)"/>
<path d="M0 0 C6.19021113 1.19099074 11.56595649 4.95081579 17 8 C17.70012207 8.38929688 18.40024414 8.77859375 19.12158203 9.1796875 C41.20681898 21.52187109 41.20681898 21.52187109 46 31 C45 33 45 33 42 35 C41.484375 33.96875 40.96875 32.9375 40.4375 31.875 C37.20228543 26.26427823 32.62394724 22.78115711 26.984375 19.73046875 C21.43451357 16.69078598 15.92284778 13.59221027 10.4375 10.4375 C9.42880859 9.87353516 8.42011719 9.30957031 7.38085938 8.72851562 C6.42888672 8.17744141 5.47691406 7.62636719 4.49609375 7.05859375 C3.19949829 6.32080688 3.19949829 6.32080688 1.87670898 5.56811523 C1.25739502 5.05063721 0.63808105 4.53315918 0 4 C0 2.68 0 1.36 0 0 Z " fill="#171717" transform="translate(197,127)"/>
<path d="M0 0 C0 0.99 0 1.98 0 3 C0.66 3.99 1.32 4.98 2 6 C-7.44998121 11.17419746 -17.12865029 15.07356772 -27.29492188 18.62670898 C-36.05244867 21.76539853 -43.9330761 25.87533262 -51 32 C-51.99 30.35 -52.98 28.7 -54 27 C-42.28887799 19.03395411 -29.92456204 14.11780112 -16.4375 9.9375 C-10.12804214 7.91040019 -4.69583594 4.69583594 0 0 Z " fill="#E0EAE6" transform="translate(158,29)"/>
<path d="M0 0 C3.8425303 0.72047443 5.45767292 1.57152696 8 4.5625 C8.7975483 9.58705429 8.82360163 11.39976829 5.875 15.5625 C3 17.5625 3 17.5625 0 18.1875 C-4.10703441 17.33186783 -5.55401113 15.94371991 -8 12.5625 C-8.625 9.0625 -8.625 9.0625 -8 5.5625 C-5.54999553 2.17572911 -4.13607554 0.77551416 0 0 Z " fill="#0E2E23" transform="translate(76,260.4375)"/>
<path d="M0 0 C1 3 1 3 -0.40625 6.109375 C-1.08929915 7.33134673 -1.78817726 8.54456255 -2.5 9.75 C-3.05312866 10.6922644 -3.05312866 10.6922644 -3.61743164 11.65356445 C-8.01439976 18.93335679 -12.25864686 24.242789 -20.73046875 26.56640625 C-25.56815688 27.49064615 -29.45662807 27.77168596 -34 25.5 C-34.66 25.005 -35.32 24.51 -36 24 C-33.44659469 21.44659469 -31.34281558 21.09856307 -27.875 20.125 C-16.18630965 16.59658085 -6.08778264 11.17078563 0 0 Z " fill="#E7EEEC" transform="translate(167,105)"/>
<path d="M0 0 C3.5 1.5 3.5 1.5 6 3 C5.01 4.485 5.01 4.485 4 6 C3.484375 5.835 2.96875 5.67 2.4375 5.5 C-1.45778272 4.70096765 -5.30851265 4.12697427 -8.9375 6 C-10.65983409 9.24204065 -10.63194725 12.47103617 -10 16 C-8.54002013 18.62716577 -8.54002013 18.62716577 -6 20 C-2.44384783 20.37043252 0.59019864 20.04916965 4 19 C4.66 19.99 5.32 20.98 6 22 C1.35890892 24.78465465 -2.66480133 26.16674325 -8 25 C-11.01665131 23.24082969 -13.41424743 21.17150514 -15 18 C-16.29737504 8.15174398 -16.29737504 8.15174398 -13.71875 3.875 C-9.36357451 -0.24262046 -5.8261097 -0.83230139 0 0 Z " fill="#E0EDE9" transform="translate(44,257)"/>
<path d="M0 0 C0.66 0.33 1.32 0.66 2 1 C0.74909424 4.75271729 -0.27991582 4.93669661 -3.6875 6.75 C-9.53811835 10.13147327 -13.39757389 13.72231023 -16.375 19.8125 C-17.24068873 24.2275125 -17.15948021 28.51683411 -17 33 C-16.34 33 -15.68 33 -15 33 C-14.34 31.35 -13.68 29.7 -13 28 C-11.68 28.33 -10.36 28.66 -9 29 C-9 29.99 -9 30.98 -9 32 C-9.66 32 -10.32 32 -11 32 C-11.33 32.66 -11.66 33.32 -12 34 C-16.47058824 38 -16.47058824 38 -20 38 C-20.33 38.99 -20.66 39.98 -21 41 C-22.20745835 37.37762495 -22.22246029 34.0229405 -22.25 30.25 C-22.270625 29.5590625 -22.29125 28.868125 -22.3125 28.15625 C-22.37076451 20.40707013 -19.39859938 14.6582549 -14.2421875 9.00390625 C-10.03235155 5.24145705 -5.14802532 2.30450299 0 0 Z " fill="#20372F" transform="translate(102,64)"/>
<path d="M0 0 C-0.28080411 3.28540804 -0.563979 4.62753188 -3.1171875 6.80859375 C-4.02726562 7.34613281 -4.93734375 7.88367188 -5.875 8.4375 C-7.36773437 9.33082031 -7.36773437 9.33082031 -8.890625 10.2421875 C-12.68745773 12.38863816 -16.51716522 14.46743446 -20.359375 16.53125 C-26.59148629 19.99763143 -32.18418677 23.71814033 -37 29 C-37 28.01 -37 27.02 -37 26 C-37.99 25.67 -38.98 25.34 -40 25 C-32.61065908 16.70275371 -23.36112197 11.60360455 -13.65234375 6.421875 C-10.32459407 4.63792672 -7.0503601 2.76494487 -3.77734375 0.8828125 C-2 0 -2 0 0 0 Z " fill="#151414" transform="translate(48,128)"/>
<path d="M0 0 C0.99 0.33 1.98 0.66 3 1 C2.34 1 1.68 1 1 1 C1 1.66 1 2.32 1 3 C-0.79296875 4.33203125 -0.79296875 4.33203125 -3.1875 5.8125 C-6.93250599 8.22712045 -9.96398818 10.7109872 -13 14 C-13.825 14.763125 -14.65 15.52625 -15.5 16.3125 C-17.58475606 18.55361276 -18.91219649 20.40259818 -20.4375 23 C-22.37084637 26.24633549 -24.35503947 28.16764541 -27.39453125 30.45703125 C-30.35231336 33.29966856 -32.22815563 36.95176283 -34.3515625 40.43359375 C-36.25304354 43.39395641 -38.45416875 45.57835564 -41 48 C-48.0450522 56.11117462 -53.14496124 63.4991165 -55.875 73.9375 C-57.48180259 79.63434555 -57.48180259 79.63434555 -59.8046875 81.2734375 C-61.75 81.8125 -61.75 81.8125 -65 82 C-65 81.34 -65 80.68 -65 80 C-64.38769531 79.96648437 -63.77539062 79.93296875 -63.14453125 79.8984375 C-60.69108673 79.15824799 -60.69108673 79.15824799 -59.76171875 76.2265625 C-59.40722656 75.03804688 -59.05273438 73.84953125 -58.6875 72.625 C-55.1556524 61.77807031 -49.22212798 54.03117653 -41.42578125 45.7734375 C-38.31915494 42.22157811 -35.95798088 38.39710543 -33.51953125 34.37109375 C-31.67710726 31.49615451 -29.50584006 29.30801058 -27 27 C-24.62217265 24.28248303 -22.41313243 21.71517042 -20.60546875 18.5859375 C-15.9153771 11.03158063 -7.88497256 4.0705815 0 0 Z " fill="#DDDDDD" transform="translate(109,38)"/>
<path d="M0 0 C17.06424914 7.40867756 17.06424914 7.40867756 20.31640625 14.57421875 C21.89353726 20.17078081 21.83521399 26.49435803 20 32 C20.78375 32.20625 21.5675 32.4125 22.375 32.625 C26.36653338 34.1390299 29.68868636 36.13225386 33.30859375 38.37109375 C35.91435069 39.9481629 38.55782918 41.38909893 41.25 42.8125 C45.73177384 45.23853142 50.07216186 47.83567515 54.375 50.5625 C54.95797852 50.92641846 55.54095703 51.29033691 56.14160156 51.6652832 C59.90051623 54.08041296 62.94648498 56.74914897 66 60 C66.60585937 60.62003906 67.21171875 61.24007812 67.8359375 61.87890625 C68.34382813 62.43449219 68.85171875 62.99007812 69.375 63.5625 C69.89835937 64.12066406 70.42171875 64.67882812 70.9609375 65.25390625 C72 67 72 67 71.6640625 69.21484375 C71.44492188 69.80394531 71.22578125 70.39304687 71 71 C70.67 69.68 70.34 68.36 70 67 C69.34 67 68.68 67 68 67 C66.33409091 64.92338202 64.84936566 62.74700049 63.33984375 60.5546875 C57.51899753 54.19937293 49.18351348 50.2632469 41.75 46.0625 C40.38161987 45.28471191 40.38161987 45.28471191 38.9855957 44.49121094 C32.04419608 40.55834407 25.0583134 36.71903712 18 33 C18.10699219 32.23816406 18.21398437 31.47632812 18.32421875 30.69140625 C19.11583939 23.87325432 19.43031882 18.12917259 16 12 C11.5353827 7.09981028 6.17281587 5.18366411 0 3 C0 2.01 0 1.02 0 0 Z " fill="#DBDBDB" transform="translate(179,84)"/>
<path d="M0 0 C5.28 0 10.56 0 16 0 C16 1.32 16 2.64 16 4 C12.04 4 8.08 4 4 4 C4 6.31 4 8.62 4 11 C7.3 11 10.6 11 14 11 C14 11.99 14 12.98 14 14 C10.7 14 7.4 14 4 14 C4 17.63 4 21.26 4 25 C2.68 25 1.36 25 0 25 C0 16.75 0 8.5 0 0 Z " fill="#E5EFEC" transform="translate(136,257)"/>
<path d="M0 0 C4.81284225 2.73456946 6.17560945 6.00693113 8 11 C4.29211614 12.85394193 0.04708683 12.45179743 -4 12 C-7.0625 10.375 -7.0625 10.375 -9 8 C-9.8125 4.75 -9.8125 4.75 -10 2 C-6.2626144 -0.4915904 -4.42668417 -0.45793285 0 0 Z " fill="#DFE8E6" transform="translate(126,289)"/>
<path d="M0 0 C0.66 0 1.32 0 2 0 C2 1.32 2 2.64 2 4 C3.65 4 5.3 4 7 4 C7 7 7 7 5 10 C1.875 10.6875 1.875 10.6875 -1 11 C-0.01 11.66 0.98 12.32 2 13 C0.68 16.3 -0.64 19.6 -2 23 C-6.875 20.375 -6.875 20.375 -8 17 C-7.67 16.34 -7.34 15.68 -7 15 C-7.66 14.67 -8.32 14.34 -9 14 C-7.55008333 11.66103978 -6.09074592 9.32900732 -4.625 7 C-4.2125 6.33226563 -3.8 5.66453125 -3.375 4.9765625 C-2.30339045 3.28272806 -1.15669501 1.63691136 0 0 Z " fill="#112E24" transform="translate(167,109)"/>
<path d="M0 0 C0.99 1.485 0.99 1.485 2 3 C2.66 2.34 3.32 1.68 4 1 C4 1.66 4 2.32 4 3 C4.99 2.67 5.98 2.34 7 2 C7 3.98 7 5.96 7 8 C7.55171875 7.81566406 8.1034375 7.63132812 8.671875 7.44140625 C11.48460705 6.9081198 13.46535347 7.31461854 16.25 7.9375 C17.58804688 8.22947266 17.58804688 8.22947266 18.953125 8.52734375 C19.62859375 8.68332031 20.3040625 8.83929688 21 9 C19.68578373 12.94264882 18.21086827 15.33956629 15 18 C12.25 19.25 12.25 19.25 10 20 C10.33 18.68 10.66 17.36 11 16 C9.35 15.67 7.7 15.34 6 15 C6 13.68 6 12.36 6 11 C5.34 10.67 4.68 10.34 4 10 C4 9.34 4 8.68 4 8 C3.34 8.66 2.68 9.32 2 10 C-0.4294516 6.3558226 -0.16179575 4.28758728 0 0 Z " fill="#32453D" transform="translate(163,98)"/>
<path d="M0 0 C1 3 1 3 0.21484375 5.0859375 C-4.20641552 13.00905045 -8.65354606 16.56322485 -17 20 C-17.33 20.66 -17.66 21.32 -18 22 C-24.75 20.125 -24.75 20.125 -27 19 C-29.0374763 18.77141886 -31.08040303 18.58975722 -33.125 18.4375 C-34.76855469 18.31181641 -34.76855469 18.31181641 -36.4453125 18.18359375 C-37.70988281 18.09271484 -37.70988281 18.09271484 -39 18 C-39 17.67 -39 17.34 -39 17 C-37.72125 16.89042969 -36.4425 16.78085938 -35.125 16.66796875 C-33.41661224 16.50839407 -31.7082818 16.34820503 -30 16.1875 C-29.16082031 16.11724609 -28.32164062 16.04699219 -27.45703125 15.97460938 C-19.14545696 15.16922427 -12.86114367 12.73745634 -6 8 C-5.34 8 -4.68 8 -4 8 C-3.71125 7.236875 -3.4225 6.47375 -3.125 5.6875 C-2 3 -2 3 0 0 Z " fill="#19332A" transform="translate(179,52)"/>
<path d="M0 0 C5.21128179 0.57903131 7.82722896 4.68925589 11.125 8.375 C16.73822899 16.23352059 17.12488445 24.64059181 16 34 C15.00217676 37.85306637 13.7052953 41.40669918 12 45 C12.66 45 13.32 45 14 45 C15.43578098 53.28601313 15.08951703 59.50615705 10.23828125 66.5625 C8.54499157 68.76068539 6.81246857 70.89952272 5 73 C4.34 72.67 3.68 72.34 3 72 C3.66 71.01 4.32 70.02 5 69 C5.66 69 6.32 69 7 69 C10.87098529 61.85356561 13.17103593 55.18204323 12 47 C11.34 46.34 10.68 45.68 10 45 C10.27734375 43.23828125 10.27734375 43.23828125 11 41 C14.08811789 29.65556691 15.08691164 21.91704088 10 11 C8.49430671 8.66813084 6.96753162 7.01552019 5 5 C4.52820313 4.5153125 4.05640625 4.030625 3.5703125 3.53125 C2.3966886 2.33773417 1.20063936 1.16633538 0 0 Z " fill="#DCDBDB" transform="translate(175,0)"/>
<path d="M0 0 C0.66 0 1.32 0 2 0 C2.33 3.3 2.66 6.6 3 10 C4.051875 10.37125 4.051875 10.37125 5.125 10.75 C13.22162162 14.27027027 13.22162162 14.27027027 15.125 18.5 C15 21 15 21 13.46875 22.91015625 C10.34071512 25.55809717 7.05911831 27.18496148 3.375 28.9375 C2.66730469 29.28232422 1.95960938 29.62714844 1.23046875 29.98242188 C-0.18505296 30.67213419 -1.6020221 31.35888478 -3.02050781 32.04248047 C-5.69355834 33.33548789 -8.34721174 34.66600476 -11 36 C-12.33333333 36.66666667 -13.66666667 37.33333333 -15 38 C-15 37.01 -15 36.02 -15 35 C-14.3294458 34.69296143 -13.6588916 34.38592285 -12.96801758 34.06958008 C-9.91080004 32.66191182 -6.86171373 31.23741751 -3.8125 29.8125 C-2.75740234 29.32974609 -1.70230469 28.84699219 -0.61523438 28.34960938 C4.78833106 25.80976316 9.17385124 23.64058398 13 19 C10.67408279 16.39497273 8.42237321 14.5852446 5.375 12.9375 C2 11 2 11 0 8 C-0.25760279 5.30547479 -0.08900053 2.71451625 0 0 Z " fill="#DEDCDD" transform="translate(129,0)"/>
<path d="M0 0 C3.83392734 4.51050276 4.58297768 9.33191073 6 15 C2.37 15 -1.26 15 -5 15 C-2.05357143 3.75 -2.05357143 3.75 0 0 Z " fill="#233C34" transform="translate(85,220)"/>
<path d="M0 0 C1.60379341 -0.05416188 3.20811406 -0.09286638 4.8125 -0.125 C5.70582031 -0.14820313 6.59914063 -0.17140625 7.51953125 -0.1953125 C10 0 10 0 13 2 C13.3125 5 13.3125 5 13 8 C11 10 11 10 8.58203125 10.4375 C6 10 6 10 4.19921875 7.8125 C3.70035156 6.884375 3.20148438 5.95625 2.6875 5 C2.17574219 4.071875 1.66398437 3.14375 1.13671875 2.1875 C0.76160156 1.465625 0.38648437 0.74375 0 0 Z " fill="#102D23" transform="translate(121,209)"/>
<path d="M0 0 C-0.6391333 0.35715088 -1.2782666 0.71430176 -1.93676758 1.08227539 C-4.8971997 2.73906037 -7.85484923 4.40075529 -10.8125 6.0625 C-11.81732422 6.62388672 -12.82214844 7.18527344 -13.85742188 7.76367188 C-27.41105419 14.88026437 -27.41105419 14.88026437 -38.6875 24.9375 C-39.33074219 25.70964844 -39.97398438 26.48179687 -40.63671875 27.27734375 C-41.08660156 27.84582031 -41.53648438 28.41429687 -42 29 C-42.33 28.01 -42.66 27.02 -43 26 C-42.01 24.515 -42.01 24.515 -41 23 C-40.34 23 -39.68 23 -39 23 C-38.79632813 22.42636719 -38.59265625 21.85273438 -38.3828125 21.26171875 C-36.49494105 18.173929 -33.89267413 16.66104237 -30.875 14.8125 C-29.95968506 14.23810181 -29.95968506 14.23810181 -29.02587891 13.65209961 C-21.8293152 9.18630173 -14.43962461 5.04476143 -7 1 C-6.24976563 0.56558594 -5.49953125 0.13117188 -4.7265625 -0.31640625 C-3 -1 -3 -1 0 0 Z " fill="#DCDCDC" transform="translate(43,121)"/>
<path d="M0 0 C0 3 0 3 -1.4375 6.375 C-3.6857049 12.03793121 -3.73363103 17.97455026 -4 24 C-5.50559539 22.03617993 -6.89131683 20.21736634 -8 18 C-9.32 18.33 -10.64 18.66 -12 19 C-10.64891284 14.0755457 -8.55772192 10.70923067 -5.4375 6.6875 C-5.02564453 6.15060547 -4.61378906 5.61371094 -4.18945312 5.06054688 C-1.26506696 1.26506696 -1.26506696 1.26506696 0 0 Z " fill="#2E423B" transform="translate(74,91)"/>
<path d="M0 0 C-3.465 1.485 -3.465 1.485 -7 3 C-4.69 3.33 -2.38 3.66 0 4 C0 4.33 0 4.66 0 5 C-0.66386719 5.04898438 -1.32773438 5.09796875 -2.01171875 5.1484375 C-7.43937323 5.55603192 -7.43937323 5.55603192 -12.625 7.0625 C-16.13300444 8.44723859 -19.2453184 8.12727734 -23 8 C-21.22807131 4.57427119 -19.27115052 3.54471781 -15.75 2.375 C-14.1694224 1.90725183 -12.58610476 1.4486486 -11 1 C-10.00806641 0.67128906 -10.00806641 0.67128906 -8.99609375 0.3359375 C-5.66636192 -0.74280931 -3.31441674 -1.32576669 0 0 Z " fill="#D9E3DF" transform="translate(140,65)"/>
<path d="M0 0 C0.33 1.32 0.66 2.64 1 4 C0.27296875 4.268125 -0.4540625 4.53625 -1.203125 4.8125 C-8.23223978 7.55205243 -14.23623592 10.89321423 -20.40625 15.23046875 C-22.5640187 16.70256095 -24.63332972 17.91155494 -27 19 C-22.07228036 11.92979356 -8.949042 0 0 0 Z " fill="#253832" transform="translate(126,41)"/>
<path d="M0 0 C0.33 1.65 0.66 3.3 1 5 C-0.86896555 5.84678051 -2.74550181 6.67686211 -4.625 7.5 C-6.19121094 8.19609375 -6.19121094 8.19609375 -7.7890625 8.90625 C-11.08124291 10.02767398 -13.55115223 10.207138 -17 10 C-16.34 9.67 -15.68 9.34 -15 9 C-14.61328125 8.06414063 -14.61328125 8.06414063 -14.21875 7.109375 C-12.52083398 4.1706742 -10.58704493 3.566056 -7.5 2.25 C-6.03046875 1.60804687 -6.03046875 1.60804687 -4.53125 0.953125 C-2 0 -2 0 0 0 Z " fill="#2D433A" transform="translate(141,34)"/>
<path d="M0 0 C4.81284225 2.73456946 6.17560945 6.00693113 8 11 C7.01 11.33 6.02 11.66 5 12 C4.34 11.01 3.68 10.02 3 9 C1.35666496 7.96210419 -0.31243867 6.96432076 -2 6 C-3.34275169 5.01268258 -4.67732273 4.01405257 -6 3 C-6.99 2.34 -7.98 1.68 -9 1 C-5.89951072 -0.55024464 -3.42105782 -0.28992015 0 0 Z " fill="#4D5D57" transform="translate(126,289)"/>
<path d="M0 0 C1 3 1 3 -0.546875 6.28515625 C-1.2706335 7.55040319 -2.005501 8.80934501 -2.75 10.0625 C-3.29140625 11.01866211 -3.29140625 11.01866211 -3.84375 11.99414062 C-5.66997944 15.13379958 -6.9345676 16.9563784 -10 19 C-10.66 18.01 -11.32 17.02 -12 16 C-12.99 16.99 -13.98 17.98 -15 19 C-16.32 18.34 -17.64 17.68 -19 17 C-18.11699219 16.59523438 -17.23398438 16.19046875 -16.32421875 15.7734375 C-13.01935995 14.01032834 -10.57702084 12.13664219 -7.8125 9.625 C-6.97332031 8.87476562 -6.13414062 8.12453125 -5.26953125 7.3515625 C-3.04003214 5.04147908 -1.52554454 2.81256745 0 0 Z " fill="#DCE5E2" transform="translate(167,105)"/>
<path d="M0 0 C17.1579001 7.44933741 17.1579001 7.44933741 20.3203125 14.296875 C21.84574335 20.36353102 21.27105029 26.79596005 21 33 C20.01 33 19.02 33 18 33 C18.10699219 32.23816406 18.21398437 31.47632812 18.32421875 30.69140625 C19.11583939 23.87325432 19.43031882 18.12917259 16 12 C11.5353827 7.09981028 6.17281587 5.18366411 0 3 C0 2.01 0 1.02 0 0 Z " fill="#D7D6D6" transform="translate(179,84)"/>
<path d="M0 0 C0.33 0 0.66 0 1 0 C1.8957921 9.57502227 -0.67247603 17.1939455 -4 26 C-4.33 25.01 -4.66 24.02 -5 23 C-4.67 22.34 -4.34 21.68 -4 21 C-4.66 21 -5.32 21 -6 21 C-5.814375 20.38125 -5.62875 19.7625 -5.4375 19.125 C-4.76313824 16.95839822 -4.76313824 16.95839822 -6 15 C-5.0390625 12.5390625 -5.0390625 12.5390625 -3.625 9.625 C-2.08278435 6.42856421 -0.71047717 3.48629494 0 0 Z " fill="#183229" transform="translate(186,118)"/>
<path d="M0 0 C0.99 0.66 1.98 1.32 3 2 C2.71624756 5.40502926 2.23082747 6.76257746 -0.1875 9.25 C-3.22349056 11.13906079 -5.46723648 11.67137084 -9 12 C-9 12.66 -9 13.32 -9 14 C-12.3 13.67 -15.6 13.34 -19 13 C-14.6436185 10.09574566 -9.70234107 9.34677318 -4.625 8.3125 C-1.59552416 7.16836889 -1.59552416 7.16836889 -0.625 3.375 C-0.41875 2.26125 -0.2125 1.1475 0 0 Z " fill="#CFDCD6" transform="translate(182,108)"/>
<path d="M0 0 C0.99 0 1.98 0 3 0 C3 2.31 3 4.62 3 7 C7.29 7 11.58 7 16 7 C16 7.99 16 8.98 16 10 C10.72 10 5.44 10 0 10 C0 6.7 0 3.4 0 0 Z " fill="#F5FCFA" transform="translate(168,271)"/>
<path d="M0 0 C1 3 1 3 0.21484375 5.0859375 C-2.59812957 10.12692333 -5.02247988 13.9525387 -10 17 C-13.125 16.875 -13.125 16.875 -16 16 C-17.33191742 15.66105327 -18.66499852 15.32658834 -20 15 C-18.80375 14.5875 -17.6075 14.175 -16.375 13.75 C-13.53453743 12.69741724 -11.1116115 11.54204908 -8.625 9.8125 C-6 8 -6 8 -4 8 C-3.71125 7.236875 -3.4225 6.47375 -3.125 5.6875 C-2 3 -2 3 0 0 Z " fill="#364842" transform="translate(179,52)"/>
<path d="M0 0 C0.33 0 0.66 0 1 0 C1.36721393 4.59017416 1.42605145 8.05913638 -0.5 12.3125 C-4.29386002 16.39089952 -8.40215851 18.78351321 -14 19.25 C-14.99 19.12625 -14.99 19.12625 -16 19 C-13 17 -13 17 -9.9375 15.5625 C-6.7770602 14.17919845 -6.7770602 14.17919845 -5 11 C-5 9.68 -5 8.36 -5 7 C-4.34 6.67 -3.68 6.34 -3 6 C-1.95191959 4.02477154 -0.9479589 2.02518491 0 0 Z " fill="#193328" transform="translate(189,102)"/>
<path d="M0 0 C0.33 0 0.66 0 1 0 C1 2.97 1 5.94 1 9 C1.66 9 2.32 9 3 9 C3 7.02 3 5.04 3 3 C3.33 3 3.66 3 4 3 C4.309375 4.093125 4.61875 5.18625 4.9375 6.3125 C5.58337897 8.55407994 6.2623117 10.7869351 7 13 C9.31 13.33 11.62 13.66 14 14 C14 14.33 14 14.66 14 15 C12.35 15 10.7 15 9 15 C9.33 15.99 9.66 16.98 10 18 C6.2447503 17.14653416 4.30325659 16.31921746 1.625 13.5 C-0.52026272 8.87943414 -0.35628485 5.00778154 0 0 Z " fill="#D7E3DF" transform="translate(64,264)"/>
<path d="M0 0 C4.95 0 9.9 0 15 0 C15 0.99 15 1.98 15 3 C10.71 3 6.42 3 2 3 C2 4.98 2 6.96 2 9 C1.01 9.495 1.01 9.495 0 10 C0 6.7 0 3.4 0 0 Z " fill="#F7FEFC" transform="translate(137,258)"/>
<path d="M0 0 C0.33 0.66 0.66 1.32 1 2 C1.66 2 2.32 2 3 2 C1.44000455 6.21198772 -1.55248619 8.27071823 -5 11 C-5.66 11.66 -6.32 12.32 -7 13 C-7 12.01 -7 11.02 -7 10 C-7.99 9.67 -8.98 9.34 -10 9 C-8.89902432 7.87187697 -7.79408444 6.74762189 -6.6875 5.625 C-6.07261719 4.99851563 -5.45773438 4.37203125 -4.82421875 3.7265625 C-3 2 -3 2 0 0 Z " fill="#1E1D1E" transform="translate(18,144)"/>
<path d="M0 0 C0.66 0.33 1.32 0.66 2 1 C1.34 1.66 0.68 2.32 0 3 C0.66 3.66 1.32 4.32 2 5 C0.37829621 6.00533667 -1.24747237 7.00411907 -2.875 8 C-3.77992188 8.556875 -4.68484375 9.11375 -5.6171875 9.6875 C-8 11 -8 11 -10 11 C-10 10.01 -10 9.02 -10 8 C-10.66 7.67 -11.32 7.34 -12 7 C-10.04754815 5.80285445 -8.08785003 4.61751926 -6.125 3.4375 C-5.03445312 2.77621094 -3.94390625 2.11492187 -2.8203125 1.43359375 C-1.88960937 0.96050781 -0.95890625 0.48742187 0 0 Z " fill="#1D1D1D" transform="translate(191,319)"/>
<path d="M0 0 C0.66 0.66 1.32 1.32 2 2 C1.72794998 6.17143372 0.98626572 9.01373428 -2 12 C-4.1875 12.75 -4.1875 12.75 -6 13 C-6 8.1597232 -5.8009029 5.87903977 -2.4375 2.1875 C-1.2309375 1.1046875 -1.2309375 1.1046875 0 0 Z " fill="#052618" transform="translate(172,144)"/>
<path d="M0 0 C3.12552551 1.33951093 4.77535949 2.63262512 6.6875 5.4375 C7.10386719 6.03433594 7.52023438 6.63117188 7.94921875 7.24609375 C9.85812731 10.43233889 10.11498374 13.06612173 10.0625 16.6875 C10.05347656 17.49574219 10.04445312 18.30398437 10.03515625 19.13671875 C10.02355469 19.75160156 10.01195312 20.36648437 10 21 C9.01 21 8.02 21 7 21 C6.99742187 20.40574219 6.99484375 19.81148437 6.9921875 19.19921875 C6.63929064 11.63546266 3.95813611 6.36691008 0 0 Z " fill="#4C5A56" transform="translate(161,74)"/>
<path d="M0 0 C0.33 1.32 0.66 2.64 1 4 C4.96 4 8.92 4 13 4 C13 4.99 13 5.98 13 7 C8.05 7 3.1 7 -2 7 C-2 2 -2 2 0 0 Z " fill="#F7FCFB" transform="translate(202,274)"/>
<path d="M0 0 C2.25 0.3125 2.25 0.3125 4 1 C2.421875 3.48046875 2.421875 3.48046875 0 6 C-3.234375 6.48828125 -3.234375 6.48828125 -6.75 6.3125 C-7.92046875 6.26738281 -9.0909375 6.22226562 -10.296875 6.17578125 C-11.18890625 6.11777344 -12.0809375 6.05976563 -13 6 C-13.33 5.34 -13.66 4.68 -14 4 C-12 3 -12 3 -8.125 3.125 C-4.35862318 3.19978366 -2.92590783 2.40342429 0 0 Z " fill="#FAFEFD" transform="translate(133,346)"/>
<path d="M0 0 C1.03115279 3.26913624 0.9638984 5.86041348 0.5625 9.25 C0.46066406 10.14203125 0.35882813 11.0340625 0.25390625 11.953125 C0.17011719 12.62859375 0.08632813 13.3040625 0 14 C-0.99 14.33 -1.98 14.66 -3 15 C-4.64965169 13.35034831 -4.24949498 11.4523645 -4.3125 9.1875 C-4.29188023 4.3830928 -4.29188023 4.3830928 -2 1.375 C-1.34 0.92125 -0.68 0.4675 0 0 Z " fill="#E7F1EF" transform="translate(33,261)"/>
<path d="M0 0 C0 0.99 0 1.98 0 3 C-1.64333504 4.03789581 -3.31243867 5.03567924 -5 6 C-7.12508244 9.18762365 -7.5020163 11.26512223 -8 15 C-8.66 15 -9.32 15 -10 15 C-10.41899579 11.57487569 -10.60380582 8.40942081 -10 5 C-7.23787118 1.62158975 -4.35044467 0 0 0 Z " fill="#F0F8F6" transform="translate(75,258)"/>
<path d="M0 0 C4.95 0 9.9 0 15 0 C15 0.99 15 1.98 15 3 C13.75283203 3.09087891 13.75283203 3.09087891 12.48046875 3.18359375 C10.85044922 3.30927734 10.85044922 3.30927734 9.1875 3.4375 C7.56908203 3.55931641 7.56908203 3.55931641 5.91796875 3.68359375 C2.94010095 3.90212461 2.94010095 3.90212461 0 5 C0 3.35 0 1.7 0 0 Z " fill="#F8FEFC" transform="translate(200,258)"/>
<path d="M0 0 C5.06998019 0.65419099 9.41990777 2.8546409 14 5 C13.67 5.99 13.34 6.98 13 8 C13.08573227 10.06587115 13.23833535 12.12946525 13.4375 14.1875 C13.53933594 15.27417969 13.64117187 16.36085938 13.74609375 17.48046875 C13.82988281 18.31191406 13.91367188 19.14335937 14 20 C13.01 20.33 12.02 20.66 11 21 C11.08121094 20.20335938 11.16242188 19.40671875 11.24609375 18.5859375 C11.7904998 12.46288254 11.7904998 12.46288254 9.58203125 6.97265625 C7.79162538 5.47238012 5.99240676 4.21592275 4 3 C3.195625 2.38125 2.39125 1.7625 1.5625 1.125 C1.046875 0.75375 0.53125 0.3825 0 0 Z " fill="#374B44" transform="translate(140,4)"/>
<path d="M0 0 C1.32 0.99 2.64 1.98 4 3 C3.34 5.31 2.68 7.62 2 10 C1.01 10 0.02 10 -1 10 C-1.66 10.66 -2.32 11.32 -3 12 C-3.99 11.67 -4.98 11.34 -6 11 C-5.38125 10.113125 -4.7625 9.22625 -4.125 8.3125 C-2.34602259 5.53938816 -1.08916398 3.0859646 0 0 Z " fill="#E1E7E5" transform="translate(236,279)"/>
<path d="M0 0 C0.74609375 1.6953125 0.74609375 1.6953125 1 4 C-4.11585481 11.61721872 -11.47450968 16.98300646 -19 22 C-19.99 21.67 -20.98 21.34 -22 21 C-20.96552734 20.41605469 -20.96552734 20.41605469 -19.91015625 19.8203125 C-11.72745947 14.9488579 -3.9633411 8.93291906 0 0 Z " fill="#E3E0E2" transform="translate(250,292)"/>
<path d="M0 0 C1.22589844 0.01353516 1.22589844 0.01353516 2.4765625 0.02734375 C3.41628906 0.04474609 3.41628906 0.04474609 4.375 0.0625 C3.6640625 2.015625 3.6640625 2.015625 2.375 4.0625 C0.2109375 4.671875 0.2109375 4.671875 -2.25 4.8125 C-3.06726563 4.86921875 -3.88453125 4.9259375 -4.7265625 4.984375 C-5.35304687 5.01015625 -5.97953125 5.0359375 -6.625 5.0625 C-6.625 3.7425 -6.625 2.4225 -6.625 1.0625 C-4.21954362 -0.14022819 -2.67503047 -0.03821472 0 0 Z " fill="#E6F2EF" transform="translate(176.625,106.9375)"/>
<path d="M0 0 C0.66 0 1.32 0 2 0 C2.33 3.3 2.66 6.6 3 10 C3.70125 10.2475 4.4025 10.495 5.125 10.75 C8.42594632 12.18519405 11.15019253 13.79787605 14 16 C14.875 18.25 14.875 18.25 15 20 C14.154375 19.2575 13.30875 18.515 12.4375 17.75 C10.14998295 15.82652961 7.87755039 14.29619078 5.25 12.875 C2 11 2 11 0 8 C-0.25760279 5.30547479 -0.08900053 2.71451625 0 0 Z " fill="#D8D7D7" transform="translate(129,0)"/>
<path d="M0 0 C4 2 4 2 6 5 C6 6.32 6 7.64 6 9 C5.01 9.495 5.01 9.495 4 10 C3.34227572 13.02934491 3.34227572 13.02934491 3 16 C2.67 16 2.34 16 2 16 C1.34 10.72 0.68 5.44 0 0 Z " fill="#EDF2F0" transform="translate(235,159)"/>
<path d="M0 0 C0.66 0 1.32 0 2 0 C2 1.32 2 2.64 2 4 C3.65 4 5.3 4 7 4 C7 7 7 7 6 9 C3.69 8.67 1.38 8.34 -1 8 C-0.67 5.36 -0.34 2.72 0 0 Z " fill="#072519" transform="translate(167,109)"/>
<path d="M0 0 C0 0.99 0 1.98 0 3 C0.99 4.485 0.99 4.485 2 6 C-4.75 10 -4.75 10 -7 10 C-7 9.34 -7 8.68 -7 8 C-8.32 8.33 -9.64 8.66 -11 9 C-8.37386366 6.08207073 -5.26167448 4.15131721 -2 2 C-1.34 1.34 -0.68 0.68 0 0 Z " fill="#D7E3DD" transform="translate(158,29)"/>
<path d="M0 0 C0.33 1.32 0.66 2.64 1 4 C-2.83325617 6.70582788 -5.32538149 7.32613618 -10 7 C-10.33 6.01 -10.66 5.02 -11 4 C-10.28972656 3.79503906 -9.57945313 3.59007812 -8.84765625 3.37890625 C-7.92855469 3.10949219 -7.00945312 2.84007812 -6.0625 2.5625 C-4.68771484 2.16224609 -4.68771484 2.16224609 -3.28515625 1.75390625 C-1.0597507 1.20973949 -1.0597507 1.20973949 0 0 Z " fill="#EBF6F3" transform="translate(84,275)"/>
<path d="M0 0 C0.66 0.33 1.32 0.66 2 1 C1.34 2.98 0.68 4.96 0 7 C2.97 7.495 2.97 7.495 6 8 C6 8.33 6 8.66 6 9 C2.04 9.66 -1.92 10.32 -6 11 C-4.02 7.37 -2.04 3.74 0 0 Z " fill="#243B32" transform="translate(166,110)"/>
<path d="M0 0 C0.33 0 0.66 0 1 0 C1.33 1.65 1.66 3.3 2 5 C2.99 3.68 3.98 2.36 5 1 C5.36630156 4.93774177 5.30233203 6.56539771 3 9.875 C2.34 10.57625 1.68 11.2775 1 12 C0.67 11.34 0.34 10.68 0 10 C-0.99 10 -1.98 10 -3 10 C-2.34 9.01 -1.68 8.02 -1 7 C-0.60612212 4.67612053 -0.26513915 2.34206251 0 0 Z " fill="#C9D5D2" transform="translate(84,266)"/>
<path d="M0 0 C3.3 0 6.6 0 10 0 C10 1.65 10 3.3 10 5 C6.7 5 3.4 5 0 5 C1.32 4.67 2.64 4.34 4 4 C4 3.01 4 2.02 4 1 C2.68 0.67 1.36 0.34 0 0 Z " fill="#BECCC8" transform="translate(204,267)"/>
<path d="M0 0 C0.33 1.32 0.66 2.64 1 4 C0.34 4 -0.32 4 -1 4 C-1 4.66 -1 5.32 -1 6 C-1.804375 6.474375 -2.60875 6.94875 -3.4375 7.4375 C-6.2918076 8.79983672 -6.2918076 8.79983672 -7 12 C-9.64 12.33 -12.28 12.66 -15 13 C-14.319375 12.46375 -13.63875 11.9275 -12.9375 11.375 C-10.06443777 9.05209862 -7.30205622 6.63643174 -4.55078125 4.171875 C-3 3 -3 3 -1 3 C-0.67 2.01 -0.34 1.02 0 0 Z " fill="#21362D" transform="translate(177,137)"/>
<path d="M0 0 C0 3.96 0 7.92 0 12 C-3 8 -3 8 -4 6 C-5.32 6.33 -6.64 6.66 -8 7 C-7.875 5.1875 -7.875 5.1875 -7 3 C-1.85714286 0 -1.85714286 0 0 0 Z " fill="#1E382C" transform="translate(70,103)"/>
<path d="M0 0 C0.66 0.33 1.32 0.66 2 1 C0.76736651 4.69790046 -0.20052451 4.9354846 -3.5625 6.6875 C-4.80193359 7.34298828 -4.80193359 7.34298828 -6.06640625 8.01171875 C-6.70449219 8.33785156 -7.34257813 8.66398437 -8 9 C-8 8.34 -8 7.68 -8 7 C-8.66 6.67 -9.32 6.34 -10 6 C-8.3811004 4.96951963 -6.75467511 3.95085322 -5.125 2.9375 C-4.22007813 2.36902344 -3.31515625 1.80054687 -2.3828125 1.21484375 C-1.20332031 0.61349609 -1.20332031 0.61349609 0 0 Z " fill="#2A4139" transform="translate(102,64)"/>
<path d="M0 0 C0.99 1.485 0.99 1.485 2 3 C2.66 2.34 3.32 1.68 4 1 C4 1.66 4 2.32 4 3 C4.99 2.67 5.98 2.34 7 2 C6.67 3.98 6.34 5.96 6 8 C5.34 8 4.68 8 4 8 C3.34 8.66 2.68 9.32 2 10 C-0.4294516 6.3558226 -0.16179575 4.28758728 0 0 Z " fill="#375146" transform="translate(163,98)"/>
<path d="M0 0 C3.71198163 -0.34530062 5.57283878 -0.25629673 8.8125 1.6875 C11.20339329 4.21501576 11.7153924 5.58470886 12 9 C11.67 8.34 11.34 7.68 11 7 C9.35448038 6.28272222 7.68577711 5.61674772 6 5 C5.34 4.67 4.68 4.34 4 4 C4 3.34 4 2.68 4 2 C2.68 1.34 1.36 0.68 0 0 Z " fill="#D3E3DE" transform="translate(120,289)"/>
<path d="M0 0 C2.33524782 2.25740623 4.18705073 4.2805761 6 7 C6 7.99 6 8.98 6 10 C3.03 10 0.06 10 -3 10 C-2.01 9.01 -1.02 8.02 0 7 C0.66 7 1.32 7 2 7 C1.34 4.69 0.68 2.38 0 0 Z " fill="#CFDEDA" transform="translate(138,237)"/>
<path d="M0 0 C0.99 0.33 1.98 0.66 3 1 C0.56720261 3.60085248 -2.09888774 5.62822835 -5 7.6875 C-5.86625 8.31011719 -6.7325 8.93273438 -7.625 9.57421875 C-10 11 -10 11 -13 11 C-11.21079529 9.3514184 -9.4187995 7.70606879 -7.625 6.0625 C-6.86316406 5.35963867 -6.86316406 5.35963867 -6.0859375 4.64257812 C-2.2265625 1.11328125 -2.2265625 1.11328125 0 0 Z " fill="#4E5955" transform="translate(112,48)"/>
<path d="M0 0 C0.33 1.32 0.66 2.64 1 4 C-4.75 7 -4.75 7 -7 7 C-7.33 5.68 -7.66 4.36 -8 3 C-5.36 2.01 -2.72 1.02 0 0 Z " fill="#121111" transform="translate(217,306)"/>
<path d="M0 0 C2.9375 0.8125 2.9375 0.8125 6 2 C6.33 2.99 6.66 3.98 7 5 C4.03 5 1.06 5 -2 5 C-1 1 -1 1 0 0 Z " fill="#EDF7F4" transform="translate(124,296)"/>
<path d="M0 0 C3.63 0 7.26 0 11 0 C11 0.99 11 1.98 11 3 C7.04 3 3.08 3 -1 3 C-0.67 2.01 -0.34 1.02 0 0 Z " fill="#F4FCFA" transform="translate(173,258)"/>
<path d="M0 0 C2.5 2.3125 2.5 2.3125 5 5 C5 5.99 5 6.98 5 8 C4.01 7.34 3.02 6.68 2 6 C2.33 7.98 2.66 9.96 3 12 C0.17216424 8.80331609 -0.63139654 6.23893982 -1 2 C-0.67 1.34 -0.34 0.68 0 0 Z " fill="#D9DFDD" transform="translate(233,153)"/>
<path d="M0 0 C-0.1875 1.875 -0.1875 1.875 -1 4 C-3.4375 5.3125 -3.4375 5.3125 -6 6 C-6.66 5.67 -7.32 5.34 -8 5 C-8 4.01 -8 3.02 -8 2 C-4.91190305 0.23537317 -3.76687864 0 0 0 Z " fill="#121111" transform="translate(27,141)"/>
<path d="M0 0 C0.33 0 0.66 0 1 0 C1.05429959 1.74965358 1.09292823 3.49979787 1.125 5.25 C1.14820313 6.22453125 1.17140625 7.1990625 1.1953125 8.203125 C0.99862781 11.0196498 0.44568916 12.60949036 -1 15 C-1.33 14.34 -1.66 13.68 -2 13 C-2.66 13 -3.32 13 -4 13 C-3.79503906 12.39671875 -3.59007812 11.7934375 -3.37890625 11.171875 C-2.97478516 9.97304687 -2.97478516 9.97304687 -2.5625 8.75 C-2.29566406 7.96109375 -2.02882812 7.1721875 -1.75390625 6.359375 C-1.08045292 4.25178012 -0.50849405 2.15246027 0 0 Z " fill="#33443E" transform="translate(186,118)"/>
<path d="M0 0 C-3 2 -3 2 -6 2 C-6 2.66 -6 3.32 -6 4 C-9.3 3.67 -12.6 3.34 -16 3 C-11.07132571 -0.28578286 -5.80561576 -1.81425492 0 0 Z " fill="#B7C9C2" transform="translate(179,118)"/>
<path d="M0 0 C3.3 0 6.6 0 10 0 C10.33 1.98 10.66 3.96 11 6 C7.2089881 4.55049545 3.6125362 2.84827434 0 1 C0 0.67 0 0.34 0 0 Z " fill="#C3D2CB" transform="translate(141,74)"/>
<path d="M0 0 C1.32 0 2.64 0 4 0 C2.25050318 4.27056661 0.09149779 5.36216132 -3.95703125 7.25 C-6.40006301 8.14686826 -8.4198847 8.32251441 -11 8 C-8 6 -8 6 -4.9375 4.5625 C-1.7770602 3.17919845 -1.7770602 3.17919845 0 0 Z " fill="#3B4843" transform="translate(184,113)"/>
<path d="M0 0 C0.66 0 1.32 0 2 0 C2 1.32 2 2.64 2 4 C-4.75 8 -4.75 8 -7 8 C-6.75 6.125 -6.75 6.125 -6 4 C-4.0625 2.875 -4.0625 2.875 -2 2 C-1.34 1.34 -0.68 0.68 0 0 Z " fill="#100F0F" transform="translate(179,327)"/>
<path d="M0 0 C0.66 0.33 1.32 0.66 2 1 C1.01 2.485 1.01 2.485 0 4 C0.66 4.66 1.32 5.32 2 6 C0.02 6.99 -1.96 7.98 -4 9 C-4.33 7.02 -4.66 5.04 -5 3 C-2.625 1.4375 -2.625 1.4375 0 0 Z " fill="#E0E3E2" transform="translate(30,142)"/>
<path d="M0 0 C0.33 0.66 0.66 1.32 1 2 C3.64 2 6.28 2 9 2 C9 2.33 9 2.66 9 3 C7.02 3.33 5.04 3.66 3 4 C2.67 4.99 2.34 5.98 2 7 C-0.0625 7.6875 -0.0625 7.6875 -2 8 C-1.125 2.25 -1.125 2.25 0 0 Z " fill="#1F382E" transform="translate(169,93)"/>
<path d="M0 0 C0.66 0.33 1.32 0.66 2 1 C0.515 2.485 0.515 2.485 -1 4 C-0.67 4.66 -0.34 5.32 0 6 C-1.65 6.66 -3.3 7.32 -5 8 C-5.33 7.34 -5.66 6.68 -6 6 C-6.66 5.67 -7.32 5.34 -8 5 C-6.71475739 4.13619741 -5.42157581 3.28419631 -4.125 2.4375 C-3.04605469 1.72400391 -3.04605469 1.72400391 -1.9453125 0.99609375 C-1.30335938 0.66738281 -0.66140625 0.33867187 0 0 Z " fill="#1E1E1E" transform="translate(223,301)"/>
<path d="M0 0 C0.66 0.33 1.32 0.66 2 1 C0.90344712 2.31886772 -0.20253423 3.62990057 -1.3125 4.9375 C-1.92738281 5.66839844 -2.54226562 6.39929688 -3.17578125 7.15234375 C-5 9 -5 9 -8 10 C-8.33 9.01 -8.66 8.02 -9 7 C-6 5 -6 5 -3 5 C-2.67 4.01 -2.34 3.02 -2 2 C-1.34 2 -0.68 2 0 2 C0 1.34 0 0.68 0 0 Z " fill="#243C32" transform="translate(160,135)"/>
<path d="M0 0 C-3.96 1.98 -7.92 3.96 -12 6 C-11.67 5.01 -11.34 4.02 -11 3 C-10.34 3 -9.68 3 -9 3 C-8.67 2.01 -8.34 1.02 -8 0 C-4.76565159 -1.33835107 -3.58579314 -0.89644829 0 0 Z " fill="#152E26" transform="translate(186,317)"/>
<path d="M0 0 C1.65 1.65 3.3 3.3 5 5 C4.34 5.66 3.68 6.32 3 7 C2.01 7 1.02 7 0 7 C-1.6875 5 -1.6875 5 -3 3 C-2.01 2.67 -1.02 2.34 0 2 C0 1.34 0 0.68 0 0 Z " fill="#DAE3E1" transform="translate(33,273)"/>
<path d="M0 0 C1.32 0 2.64 0 4 0 C3.6875 1.875 3.6875 1.875 3 4 C0 6 0 6 -2.1875 5.625 C-2.785625 5.41875 -3.38375 5.2125 -4 5 C-2.25 2.5 -2.25 2.5 0 0 Z " fill="#0C0C0C" transform="translate(225,300)"/>
<path d="M0 0 C2.97 0 5.94 0 9 0 C9 0.99 9 1.98 9 3 C6.36 3 3.72 3 1 3 C0.67 2.01 0.34 1.02 0 0 Z " fill="#F4FCFA" transform="translate(173,268)"/>
<path d="M0 0 C0 1.32 0 2.64 0 4 C-1.98 4.66 -3.96 5.32 -6 6 C-6 5.01 -6 4.02 -6 3 C-6.66 2.67 -7.32 2.34 -8 2 C-2.25 0 -2.25 0 0 0 Z " fill="#D7E4E0" transform="translate(132,43)"/>
<path d="M0 0 C1.98 0.99 3.96 1.98 6 3 C5.01 3.33 4.02 3.66 3 4 C3.33 5.32 3.66 6.64 4 8 C1.525 7.01 1.525 7.01 -1 6 C-0.67 4.02 -0.34 2.04 0 0 Z " fill="#DCE2E0" transform="translate(54,312)"/>
<path d="M0 0 C2.64 0 5.28 0 8 0 C8 0.99 8 1.98 8 3 C5.36 3 2.72 3 0 3 C0 2.01 0 1.02 0 0 Z " fill="#F9FEFD" transform="translate(112,258)"/>
<path d="M0 0 C1.32 0.33 2.64 0.66 4 1 C4 1.99 4 2.98 4 4 C3.34 4 2.68 4 2 4 C1.67 4.66 1.34 5.32 1 6 C-0.64363134 6.72159424 -2.31050386 7.39351421 -4 8 C-4 7.34 -4 6.68 -4 6 C-3.34 5.67 -2.68 5.34 -2 5 C-1.27840576 3.35636866 -0.60648579 1.68949614 0 0 Z " fill="#244034" transform="translate(89,92)"/>
<path d="M0 0 C1.32 0.33 2.64 0.66 4 1 C2.68 2.65 1.36 4.3 0 6 C-1.32 5.67 -2.64 5.34 -4 5 C-2.68 3.35 -1.36 1.7 0 0 Z " fill="#F0F5F4" transform="translate(133,346)"/>
<path d="M0 0 C1.32 0.66 2.64 1.32 4 2 C4 3.32 4 4.64 4 6 C1.08482708 4.92598892 -0.77810176 4.22189824 -3 2 C-2.01 1.34 -1.02 0.68 0 0 Z " fill="#212222" transform="translate(68,327)"/>
<path d="M0 0 C2.90802461 2.21928194 4.95312762 3.92969143 7 7 C6.625 9.1875 6.625 9.1875 6 11 C5.67 9.68 5.34 8.36 5 7 C4.34 7 3.68 7 3 7 C0.70351351 4.4385343 0 3.52032428 0 0 Z " fill="#E0DFE0" transform="translate(244,144)"/>
<path d="M0 0 C0.66 0.33 1.32 0.66 2 1 C1.50628906 1.40992188 1.01257813 1.81984375 0.50390625 2.2421875 C-0.13675781 2.78101563 -0.77742188 3.31984375 -1.4375 3.875 C-2.07558594 4.40867187 -2.71367188 4.94234375 -3.37109375 5.4921875 C-5.10805004 6.9222757 -5.10805004 6.9222757 -6 9 C-6.99 8.67 -7.98 8.34 -9 8 C-6.03 5.36 -3.06 2.72 0 0 Z " fill="#223830" transform="translate(116,53)"/>
<path d="M0 0 C-3.12432397 2.52349243 -6.38060496 4.27256146 -10 6 C-9.75 4.125 -9.75 4.125 -9 2 C-6.04454879 -0.11103658 -3.56144099 -0.19785783 0 0 Z " fill="#213A31" transform="translate(162,330)"/>
<path d="M0 0 C0.66 0.33 1.32 0.66 2 1 C1.34 1.66 0.68 2.32 0 3 C0.66 3.66 1.32 4.32 2 5 C0.35 5.66 -1.3 6.32 -3 7 C-3 6.01 -3 5.02 -3 4 C-3.66 3.67 -4.32 3.34 -5 3 C-2.625 1.4375 -2.625 1.4375 0 0 Z " fill="#252525" transform="translate(191,319)"/>
<path d="M0 0 C0.99 0.33 1.98 0.66 3 1 C2.625 2.9375 2.625 2.9375 2 5 C1.01 5.495 1.01 5.495 0 6 C-0.33 5.34 -0.66 4.68 -1 4 C-2.32 4.99 -3.64 5.98 -5 7 C-3.70700306 4.11562221 -2.34058637 2.12780579 0 0 Z " fill="#D2E2DD" transform="translate(34,258)"/>
<path d="M0 0 C0.66 0.33 1.32 0.66 2 1 C-0.97 4.3 -3.94 7.6 -7 11 C-7 7.22089522 -6.00296038 6.53893899 -3.5 3.8125 C-2.8503125 3.09707031 -2.200625 2.38164062 -1.53125 1.64453125 C-1.0259375 1.10183594 -0.520625 0.55914062 0 0 Z " fill="#374B44" transform="translate(21,153)"/>
<path d="M0 0 C-1.05078125 1.51953125 -1.05078125 1.51953125 -3 3 C-6.35546875 3.07421875 -6.35546875 3.07421875 -10.1875 2.6875 C-11.45980469 2.56761719 -12.73210937 2.44773437 -14.04296875 2.32421875 C-15.01878906 2.21722656 -15.99460938 2.11023438 -17 2 C-17 1.67 -17 1.34 -17 1 C-15.10440036 0.83069605 -13.20850769 0.66467136 -11.3125 0.5 C-10.25675781 0.4071875 -9.20101562 0.314375 -8.11328125 0.21875 C-5.39363975 0.0276585 -2.72460144 -0.04043935 0 0 Z " fill="#5E736C" transform="translate(157,68)"/>
<path d="M0 0 C2.125 0.9375 2.125 0.9375 4 2 C-1.75 6 -1.75 6 -4 6 C-4 5.01 -4 4.02 -4 3 C-3.34 3 -2.68 3 -2 3 C-2 2.34 -2 1.68 -2 1 C-1.34 0.67 -0.68 0.34 0 0 Z " fill="#1B3128" transform="translate(164,50)"/>
<path d="M0 0 C2.125 0.375 2.125 0.375 4 1 C3.6875 2.9375 3.6875 2.9375 3 5 C2.01 5.33 1.02 5.66 0 6 C0 5.01 0 4.02 0 3 C-0.66 2.67 -1.32 2.34 -2 2 C-1.34 1.34 -0.68 0.68 0 0 Z " fill="#212322" transform="translate(229,297)"/>
<path d="M0 0 C0.66 0 1.32 0 2 0 C0.25 3.875 0.25 3.875 -2 5 C-3.99960012 5.039992 -6.00047242 5.04346799 -8 5 C-7.34 4.01 -6.68 3.02 -6 2 C-2.875 1.8125 -2.875 1.8125 0 2 C0 1.34 0 0.68 0 0 Z " fill="#1B312A" transform="translate(81,273)"/>
<path d="M0 0 C3 0.125 3 0.125 6 1 C6.66 2.32 7.32 3.64 8 5 C4.7 4.01 1.4 3.02 -2 2 C-1.34 1.34 -0.68 0.68 0 0 Z " fill="#1D342B" transform="translate(89,164)"/>
<path d="M0 0 C1.32 0.33 2.64 0.66 4 1 C3.67 1.66 3.34 2.32 3 3 C2.34 3 1.68 3 1 3 C1 3.66 1 4.32 1 5 C-0.65 5 -2.3 5 -4 5 C-3.34 4.67 -2.68 4.34 -2 4 C-0.86649466 1.98330173 -0.86649466 1.98330173 0 0 Z " fill="#132D24" transform="translate(128,39)"/>
<path d="M0 0 C0.33 1.32 0.66 2.64 1 4 C-1.64738916 5.4606285 -2.89448334 6 -6 6 C-5.34 4.68 -4.68 3.36 -4 2 C-3.01 2.33 -2.02 2.66 -1 3 C-0.67 2.01 -0.34 1.02 0 0 Z " fill="#0D281E" transform="translate(138,36)"/>
<path d="M0 0 C3.73487777 0.4979837 5.81237635 0.87491756 9 3 C7.02 3.99 7.02 3.99 5 5 C3.35 3.35 1.7 1.7 0 0 Z " fill="#2C3F38" transform="translate(159,4)"/>
<path d="M0 0 C0.99 0.33 1.98 0.66 3 1 C2.67 3.31 2.34 5.62 2 8 C1.34 7.67 0.68 7.34 0 7 C-0.6875 4 -0.6875 4 -1 1 C-0.67 0.67 -0.34 0.34 0 0 Z " fill="#F6FDFB" transform="translate(85,264)"/>
<path d="M0 0 C0.99 1.32 1.98 2.64 3 4 C2.67 4.66 2.34 5.32 2 6 C1.34 5.67 0.68 5.34 0 5 C0 5.66 0 6.32 0 7 C-0.99 7.33 -1.98 7.66 -3 8 C-1.125 2.25 -1.125 2.25 0 0 Z " fill="#B9C8C3" transform="translate(85,200)"/>
<path d="M0 0 C0.80824219 0.10183594 1.61648437 0.20367187 2.44921875 0.30859375 C3.06410156 0.39238281 3.67898437 0.47617188 4.3125 0.5625 C4.3125 0.8925 4.3125 1.2225 4.3125 1.5625 C0.0225 2.2225 -4.2675 2.8825 -8.6875 3.5625 C-8.3575 2.5725 -8.0275 1.5825 -7.6875 0.5625 C-4.59271121 -0.46909626 -3.16118607 -0.41232862 0 0 Z " fill="#21362D" transform="translate(175.6875,105.4375)"/>
<path d="M0 0 C-1 1.5 -1 1.5 -3 3 C-5.71846235 3.27345479 -8.25677199 3.13491285 -11 3 C-3.71428571 -1.85714286 -3.71428571 -1.85714286 0 0 Z " fill="#364941" transform="translate(143,44)"/>
<path d="M0 0 C0.99 0.33 1.98 0.66 3 1 C1.68 2.32 0.36 3.64 -1 5 C-2.32 4.34 -3.64 3.68 -5 3 C-2.6875 1.4375 -2.6875 1.4375 0 0 Z " fill="#E5ECEA" transform="translate(165,328)"/>
<path d="M0 0 C2.475 0.99 2.475 0.99 5 2 C5 2.99 5 3.98 5 5 C3.35 4.67 1.7 4.34 0 4 C0 2.68 0 1.36 0 0 Z " fill="#0D0B0C" transform="translate(14,296)"/>
<path d="M0 0 C2.31 0 4.62 0 7 0 C7.33 0.66 7.66 1.32 8 2 C6.35 2.66 4.7 3.32 3 4 C1.97895449 3.02149805 0.9793879 2.02019573 0 1 C0 0.67 0 0.34 0 0 Z " fill="#042618" transform="translate(104,156)"/>
<path d="M0 0 C0 3.11227195 -0.45627049 5.94152152 -1 9 C-1.33 8.01 -1.66 7.02 -2 6 C-2.99 5.67 -3.98 5.34 -5 5 C-3.35 3.35 -1.7 1.7 0 0 Z " fill="#232122" transform="translate(13,148)"/>
<path d="M0 0 C1.32 0.33 2.64 0.66 4 1 C2.35 2.65 0.7 4.3 -1 6 C-1 2 -1 2 0 0 Z " fill="#0F0D0E" transform="translate(14,148)"/>
<path d="M0 0 C0.66 0.33 1.32 0.66 2 1 C0.35 2.65 -1.3 4.3 -3 6 C-3.99 5.01 -4.98 4.02 -6 3 C-4.03533587 1.93224776 -2.03144641 0.93446535 0 0 Z " fill="#CBD8D4" transform="translate(166,69)"/>
<path d="M0 0 C-0.33 0.66 -0.66 1.32 -1 2 C-4.0625 2.625 -4.0625 2.625 -7 3 C-7 2.01 -7 1.02 -7 0 C-3.86650268 -1.04449911 -3.01031744 -0.93423645 0 0 Z " fill="#10251E" transform="translate(167,68)"/>
<path d="M0 0 C1.98 0 3.96 0 6 0 C4.515 1.98 4.515 1.98 3 4 C1.68 3.67 0.36 3.34 -1 3 C-0.67 2.01 -0.34 1.02 0 0 Z " fill="#E9F1EF" transform="translate(36,257)"/>
<path d="M0 0 C-0.33 1.65 -0.66 3.3 -1 5 C-3.475 4.01 -3.475 4.01 -6 3 C-2.25 0 -2.25 0 0 0 Z " fill="#282627" transform="translate(48,128)"/>
<path d="M0 0 C1 3 1 3 -0.4375 6.1875 C-1.2109375 7.5796875 -1.2109375 7.5796875 -2 9 C-2.99 8.34 -3.98 7.68 -5 7 C-3.35 4.69 -1.7 2.38 0 0 Z " fill="#B1C6BD" transform="translate(167,105)"/>
<path d="M0 0 C0.99 0 1.98 0 3 0 C3 2.64 3 5.28 3 8 C2.67 8 2.34 8 2 8 C1.67 6.35 1.34 4.7 1 3 C0.01 3.66 -0.98 4.32 -2 5 C-1.34 3.35 -0.68 1.7 0 0 Z " fill="#C5CECB" transform="translate(77,87)"/>
<path d="M0 0 C1.88391785 3.26545761 2.49287967 6.28111761 3 10 C0.52098038 8.05989769 0.00329768 7.01374033 -0.75 3.875 C-0.8325 2.92625 -0.915 1.9775 -1 1 C-0.67 0.67 -0.34 0.34 0 0 Z " fill="#DBDADA" transform="translate(176,73)"/>
<path d="M0 0 C0.66 0 1.32 0 2 0 C2 0.66 2 1.32 2 2 C2.99 2.33 3.98 2.66 5 3 C4.67 3.66 4.34 4.32 4 5 C2.35 5 0.7 5 -1 5 C-0.67 3.35 -0.34 1.7 0 0 Z " fill="#0A251A" transform="translate(146,31)"/>
<path d="M0 0 C0.99 0.33 1.98 0.66 3 1 C2.67 2.32 2.34 3.64 2 5 C0.35 5 -1.3 5 -3 5 C-2.01 3.35 -1.02 1.7 0 0 Z " fill="#111010" transform="translate(193,318)"/>
<path d="M0 0 C1 3 1 3 1 5 C-1 6.625 -1 6.625 -3 8 C-3.66 7.67 -4.32 7.34 -5 7 C-3.35 4.69 -1.7 2.38 0 0 Z " fill="#D2D2D2" transform="translate(242,289)"/>
<path d="M0 0 C3.465 1.485 3.465 1.485 7 3 C3.25 6 3.25 6 1 6 C1.33 4.68 1.66 3.36 2 2 C1.34 2 0.68 2 0 2 C0 1.34 0 0.68 0 0 Z " fill="#18352B" transform="translate(74,169)"/>
<path d="M0 0 C0.33 1.32 0.66 2.64 1 4 C0.34 4 -0.32 4 -1 4 C-1 4.66 -1 5.32 -1 6 C-2.65 6.33 -4.3 6.66 -6 7 C-4.625 5 -4.625 5 -3 3 C-2.34 3 -1.68 3 -1 3 C-0.67 2.01 -0.34 1.02 0 0 Z " fill="#2E433A" transform="translate(177,137)"/>
<path d="M0 0 C1.2065625 0.0309375 1.2065625 0.0309375 2.4375 0.0625 C2.7675 1.0525 3.0975 2.0425 3.4375 3.0625 C1.7875 3.7225 0.1375 4.3825 -1.5625 5.0625 C-1.5625 4.0725 -1.5625 3.0825 -1.5625 2.0625 C-2.2225 1.7325 -2.8825 1.4025 -3.5625 1.0625 C-2.5625 0.0625 -2.5625 0.0625 0 0 Z " fill="#1E1E1E" transform="translate(28.5625,138.9375)"/>
<path d="M0 0 C0.66 0 1.32 0 2 0 C2.33 1.98 2.66 3.96 3 6 C2.34 6 1.68 6 1 6 C0.67 6.66 0.34 7.32 0 8 C0 5.36 0 2.72 0 0 Z " fill="#1A3228" transform="translate(104,66)"/>
<path d="M0 0 C0.33 0.66 0.66 1.32 1 2 C0.01 3.32 -0.98 4.64 -2 6 C-3.32 5.67 -4.64 5.34 -6 5 C-4.02 3.35 -2.04 1.7 0 0 Z " fill="#E1ECE7" transform="translate(170,49)"/>
<path d="M0 0 C-0.66 1.32 -1.32 2.64 -2 4 C-3.65 4 -5.3 4 -7 4 C-4.83989616 0.75984424 -3.8842653 0 0 0 Z " fill="#ECF6F1" transform="translate(151,37)"/>
<path d="M0 0 C3.8063457 0.67170806 7.35206816 1.72746564 11 3 C9.4375 4.25 9.4375 4.25 7 5 C4.42998985 3.93237266 2.3469597 2.53455057 0 1 C0 0.67 0 0.34 0 0 Z " fill="#495652" transform="translate(140,4)"/>
<path d="" fill="#FFFFFF" transform="translate(0,0)"/>
<path d="" fill="#FFFFFF" transform="translate(0,0)"/>
<path d="" fill="#FFFFFF" transform="translate(0,0)"/>
<path d="" fill="#FFFFFF" transform="translate(0,0)"/>
</svg>
